<svg width="304" height="495" viewBox="0 0 304 495" fill="none" xmlns="http://www.w3.org/2000/svg">
<rect width="304" height="495" fill="#BDBDBD"/>
<rect x="23" y="24" width="258" height="183" fill="white"/>
<rect x="19.5" y="20.5" width="265" height="190" stroke="#585858" stroke-opacity="0.7" stroke-width="7" stroke-linejoin="round"/>
<rect x="18.5" y="222.5" width="267" height="261" fill="#C4C4C4" fill-opacity="0.7" stroke="#6F747B" stroke-width="3" stroke-linejoin="round"/>
<path d="M149.126 431.609C149.853 431.209 150.669 431 151.5 431C152.331 431 153.147 431.209 153.874 431.609L170.985 441.016C171.747 441.436 172.383 442.049 172.825 442.793C173.267 443.537 173.5 444.385 173.5 445.248V463.749C173.5 464.612 173.266 465.459 172.824 466.203C172.382 466.947 171.747 467.56 170.985 467.979L153.874 477.391C153.147 477.791 152.331 478 151.5 478C150.669 478 149.853 477.791 149.126 477.391L132.015 467.979C131.254 467.56 130.619 466.947 130.176 466.204C129.734 465.461 129.501 464.614 129.5 463.752V445.248C129.5 444.385 129.733 443.537 130.175 442.793C130.617 442.049 131.253 441.436 132.015 441.016L149.126 431.609Z" fill="#1BC000" stroke="black" stroke-width="2"/>
<path d="M138.811 457.424C137.417 457.439 136.339 457.549 135.577 457.754C135.401 457.446 135.313 457.094 135.313 456.698C135.313 456.287 135.474 455.957 135.797 455.708C136.134 455.444 136.567 455.312 137.095 455.312C137.256 455.312 137.879 455.378 138.965 455.51C138.965 454.073 138.855 452.98 138.635 452.232C138.943 452.056 139.295 451.968 139.691 451.968C140.101 451.968 140.431 452.137 140.681 452.474C140.945 452.797 141.077 453.222 141.077 453.75C141.077 453.794 141.003 454.425 140.857 455.642C142.25 455.627 143.328 455.517 144.091 455.312C144.267 455.62 144.355 455.979 144.355 456.39C144.355 456.786 144.186 457.116 143.849 457.38C143.526 457.629 143.101 457.754 142.573 457.754C142.411 457.754 141.788 457.688 140.703 457.556C140.703 458.993 140.813 460.086 141.033 460.834C140.725 461.01 140.365 461.098 139.955 461.098C139.559 461.098 139.229 460.937 138.965 460.614C138.715 460.277 138.591 459.844 138.591 459.316C138.591 459.272 138.664 458.641 138.811 457.424ZM146.565 450.692C147.387 450.355 148.267 449.768 149.205 448.932C149.66 448.521 150.085 448.169 150.481 447.876C150.877 447.583 151.361 447.436 151.933 447.436C152.52 447.436 153.019 447.539 153.429 447.744C153.077 450.531 152.901 453.141 152.901 455.576C152.901 458.011 153.033 460.108 153.297 461.868C152.887 462.044 152.41 462.132 151.867 462.132C151.325 462.132 150.885 461.956 150.547 461.604C150.21 461.252 150.041 460.783 150.041 460.196C150.041 459.595 150.159 458.341 150.393 456.434C150.628 454.527 150.753 452.459 150.767 450.23C150.606 450.377 150.335 450.67 149.953 451.11C149.103 452.093 148.435 452.584 147.951 452.584C147.482 452.584 147.13 452.408 146.895 452.056C146.675 451.704 146.565 451.249 146.565 450.692ZM163.469 458.216C163.659 457.615 163.791 457.021 163.865 456.434C163.953 455.847 163.997 455.217 163.997 454.542C163.997 453.867 163.96 453.259 163.887 452.716C163.813 452.173 163.681 451.645 163.491 451.132C163.08 450.047 162.259 449.504 161.027 449.504C160.249 449.504 159.589 449.805 159.047 450.406C158.563 451.565 158.321 453.171 158.321 455.224C158.321 457.101 158.592 458.421 159.135 459.184C159.633 459.859 160.352 460.196 161.291 460.196C161.819 460.196 162.266 460.02 162.633 459.668C163.014 459.301 163.293 458.817 163.469 458.216ZM166.901 454.388C166.901 456.588 166.321 458.451 165.163 459.976C164.004 461.501 162.42 462.264 160.411 462.264C159.223 462.264 158.24 461.949 157.463 461.318C156.7 460.673 156.165 459.866 155.857 458.898C155.563 457.915 155.417 456.764 155.417 455.444C155.417 453.229 155.996 451.345 157.155 449.79C158.328 448.221 159.912 447.436 161.907 447.436C163.095 447.436 164.07 447.766 164.833 448.426C165.61 449.086 166.145 449.915 166.439 450.912C166.747 451.909 166.901 453.068 166.901 454.388Z" fill="white"/>
<path d="M101.911 361.1C102.324 359.113 102.531 357.053 102.531 354.92C102.531 352.787 102.364 350.627 102.031 348.44C103.844 347.933 105.451 347.68 106.851 347.68C108.931 347.68 110.511 348.227 111.591 349.32C112.684 350.4 113.231 352.047 113.231 354.26C113.231 356.473 112.611 358.34 111.371 359.86C110.144 361.367 108.438 362.12 106.251 362.12C104.758 362.12 103.311 361.78 101.911 361.1ZM105.011 349.7C104.891 351.327 104.831 352.907 104.831 354.44C104.831 355.96 104.904 357.8 105.051 359.96C105.598 360.147 106.211 360.24 106.891 360.24C107.571 360.24 108.158 360.087 108.651 359.78C109.158 359.46 109.544 359.027 109.811 358.48C110.331 357.44 110.591 356.167 110.591 354.66C110.591 353.207 110.311 352.007 109.751 351.06C109.138 349.993 108.184 349.46 106.891 349.46C106.184 349.46 105.558 349.54 105.011 349.7ZM116.676 357.46C116.676 358.42 116.829 359.18 117.136 359.74C117.443 360.287 117.956 360.56 118.676 360.56C119.396 360.56 119.956 360.32 120.356 359.84C120.769 359.347 120.976 358.753 120.976 358.06C121.429 358.06 121.823 358.173 122.156 358.4C122.489 358.627 122.656 358.94 122.656 359.34C122.656 360.167 122.216 360.86 121.336 361.42C120.456 361.967 119.529 362.24 118.556 362.24C117.036 362.24 115.936 361.833 115.256 361.02C114.576 360.193 114.236 358.973 114.236 357.36C114.236 355.747 114.689 354.393 115.596 353.3C116.516 352.193 117.736 351.64 119.256 351.64C120.296 351.64 121.129 351.88 121.756 352.36C122.396 352.827 122.716 353.56 122.716 354.56C122.716 355.547 122.263 356.293 121.356 356.8C120.463 357.293 119.369 357.54 118.076 357.54C117.623 357.54 117.156 357.513 116.676 357.46ZM116.696 355.88C117.096 355.96 117.516 356 117.956 356C118.916 356 119.723 355.82 120.376 355.46C120.456 355.14 120.496 354.887 120.496 354.7C120.496 354.233 120.329 353.88 119.996 353.64C119.663 353.4 119.203 353.28 118.616 353.28C118.043 353.28 117.523 353.467 117.056 353.84C116.816 354.533 116.696 355.213 116.696 355.88ZM126.383 358.36C126.343 358.547 126.323 358.7 126.323 358.82C126.323 359.367 126.483 359.787 126.803 360.08C127.136 360.373 127.576 360.52 128.123 360.52C128.683 360.52 129.143 360.42 129.503 360.22C129.876 360.007 130.063 359.693 130.063 359.28C130.063 358.867 129.863 358.54 129.463 358.3C129.076 358.047 128.603 357.847 128.043 357.7C127.496 357.553 126.943 357.393 126.383 357.22C125.823 357.033 125.343 356.747 124.943 356.36C124.556 355.973 124.363 355.487 124.363 354.9C124.363 353.98 124.849 353.207 125.823 352.58C126.796 351.953 127.816 351.64 128.883 351.64C130.056 351.64 130.949 351.88 131.563 352.36C131.923 352.64 132.103 353.013 132.103 353.48C132.103 353.933 131.923 354.307 131.563 354.6C131.216 354.88 130.789 355.02 130.283 355.02C130.176 355.02 130.043 355.007 129.883 354.98C129.923 354.807 129.943 354.653 129.943 354.52C129.943 354.133 129.796 353.84 129.503 353.64C129.209 353.44 128.809 353.34 128.303 353.34C127.809 353.34 127.356 353.44 126.943 353.64C126.783 353.853 126.703 354.127 126.703 354.46C126.703 354.793 126.896 355.067 127.283 355.28C127.669 355.48 128.136 355.66 128.683 355.82C129.243 355.967 129.803 356.14 130.363 356.34C130.923 356.527 131.396 356.827 131.783 357.24C132.169 357.64 132.363 358.147 132.363 358.76C132.363 359.76 131.863 360.593 130.863 361.26C129.876 361.913 128.856 362.24 127.803 362.24C126.749 362.24 125.876 362.053 125.183 361.68C124.503 361.293 124.163 360.713 124.163 359.94C124.163 359.46 124.336 359.073 124.683 358.78C125.043 358.473 125.476 358.32 125.983 358.32C126.089 358.32 126.223 358.333 126.383 358.36ZM137.684 362.24C136.257 362.24 135.164 361.86 134.404 361.1C133.644 360.34 133.264 359.247 133.264 357.82C133.264 356.087 133.751 354.627 134.724 353.44C135.697 352.24 136.991 351.64 138.604 351.64C139.524 351.64 140.271 351.827 140.844 352.2C141.417 352.56 141.704 353.1 141.704 353.82C141.704 354.287 141.517 354.707 141.144 355.08C140.771 355.44 140.351 355.62 139.884 355.62C139.777 355.62 139.644 355.607 139.484 355.58C139.524 355.407 139.544 355.253 139.544 355.12C139.544 354.64 139.417 354.233 139.164 353.9C138.911 353.567 138.491 353.4 137.904 353.4C137.317 353.4 136.771 353.64 136.264 354.12C135.904 355.053 135.724 356.22 135.724 357.62C135.724 359.527 136.444 360.48 137.884 360.48C138.657 360.48 139.231 360.233 139.604 359.74C139.991 359.233 140.184 358.667 140.184 358.04C140.637 358.04 141.031 358.153 141.364 358.38C141.697 358.607 141.864 358.92 141.864 359.32C141.864 360.187 141.417 360.893 140.524 361.44C139.644 361.973 138.697 362.24 137.684 362.24ZM146.566 361.76C146.153 361.92 145.713 362 145.246 362C144.779 362 144.399 361.893 144.106 361.68C143.826 361.453 143.686 361.147 143.686 360.76C143.686 360.36 143.746 359.64 143.866 358.6C143.986 357.56 144.046 356.553 144.046 355.58C144.046 354.593 143.893 353.44 143.586 352.12C144.013 351.96 144.433 351.88 144.846 351.88C145.259 351.88 145.613 352.02 145.906 352.3C146.213 352.58 146.366 352.953 146.366 353.42C146.366 353.66 146.326 354.02 146.246 354.5C146.166 354.967 146.119 355.32 146.106 355.56C146.626 354.373 147.239 353.447 147.946 352.78C148.666 352.1 149.379 351.76 150.086 351.76C150.579 351.76 150.973 351.933 151.266 352.28C151.559 352.627 151.706 353.067 151.706 353.6C151.706 354.12 151.573 354.547 151.306 354.88C151.039 355.2 150.706 355.36 150.306 355.36C149.919 355.36 149.606 355.32 149.366 355.24C149.406 355.08 149.426 354.933 149.426 354.8C149.426 354.253 149.233 353.98 148.846 353.98C148.259 353.98 147.706 354.573 147.186 355.76C146.679 356.933 146.339 358.033 146.166 359.06C146.233 360.06 146.366 360.96 146.566 361.76ZM152.847 352.06C153.273 351.94 153.7 351.88 154.127 351.88C154.567 351.88 154.94 352.013 155.247 352.28C155.553 352.547 155.707 352.893 155.707 353.32C155.707 353.733 155.633 354.46 155.487 355.5C155.353 356.527 155.287 357.327 155.287 357.9C155.287 359.393 155.427 360.68 155.707 361.76C155.293 361.92 154.847 362 154.367 362C153.887 362 153.507 361.893 153.227 361.68C152.947 361.453 152.807 361.133 152.807 360.72C152.807 360.293 152.887 359.6 153.047 358.64C153.207 357.68 153.287 356.887 153.287 356.26C153.287 354.593 153.14 353.193 152.847 352.06ZM153.107 347.54C153.573 347.327 154.033 347.22 154.487 347.22C154.94 347.22 155.273 347.34 155.487 347.58C155.713 347.807 155.827 348.147 155.827 348.6C155.827 349.053 155.673 349.453 155.367 349.8C155.073 350.147 154.687 350.32 154.207 350.32C153.22 350.32 152.727 349.807 152.727 348.78C152.727 348.327 152.853 347.913 153.107 347.54ZM160.444 360.04C160.991 360.24 161.624 360.34 162.344 360.34C163.064 360.34 163.698 360.2 164.244 359.92C164.898 358.8 165.224 357.46 165.224 355.9C165.224 354.327 164.951 353.54 164.404 353.54C163.724 353.54 162.958 354.227 162.104 355.6C161.264 356.973 160.711 358.453 160.444 360.04ZM160.444 355.94C161.858 353.153 163.424 351.76 165.144 351.76C166.051 351.76 166.698 352.133 167.084 352.88C167.484 353.613 167.684 354.547 167.684 355.68C167.684 357.307 167.204 358.787 166.244 360.12C165.284 361.453 164.078 362.12 162.624 362.12C161.798 362.12 161.044 361.987 160.364 361.72C160.391 363.547 160.504 365.22 160.704 366.74C160.278 366.9 159.838 366.98 159.384 366.98C158.931 366.98 158.558 366.827 158.264 366.52C157.971 366.227 157.824 365.773 157.824 365.16C157.824 364.547 157.904 363.5 158.064 362.02C158.224 360.54 158.304 359.38 158.304 358.54C158.304 355.767 158.158 353.627 157.864 352.12C158.291 351.96 158.738 351.88 159.204 351.88C159.684 351.88 160.051 352.02 160.304 352.3C160.571 352.567 160.704 352.993 160.704 353.58C160.704 354.153 160.618 354.94 160.444 355.94ZM170.109 348.94C170.536 348.727 170.969 348.62 171.409 348.62C171.849 348.62 172.202 348.76 172.469 349.04C172.749 349.32 172.889 349.733 172.889 350.28C172.889 350.827 172.856 351.447 172.789 352.14C173.789 352.14 174.742 352 175.649 351.72C175.809 351.987 175.889 352.3 175.889 352.66C175.889 353.007 175.729 353.293 175.409 353.52C175.102 353.733 174.789 353.84 174.469 353.84C174.149 353.84 173.789 353.8 173.389 353.72C172.989 353.64 172.729 353.593 172.609 353.58C172.596 353.7 172.556 353.94 172.489 354.3C172.436 354.66 172.389 354.973 172.349 355.24C172.242 355.973 172.189 356.76 172.189 357.6C172.189 359.427 172.782 360.34 173.969 360.34C174.409 360.34 174.916 360.187 175.489 359.88C175.662 360.133 175.749 360.46 175.749 360.86C175.749 361.26 175.529 361.573 175.089 361.8C174.662 362.013 174.149 362.12 173.549 362.12C171.202 362.12 170.029 360.787 170.029 358.12C170.029 357.733 170.082 357.033 170.189 356.02C170.309 355.007 170.369 354.187 170.369 353.56C169.729 353.6 169.216 353.713 168.829 353.9C168.669 353.66 168.589 353.387 168.589 353.08C168.589 352.76 168.702 352.5 168.929 352.3C169.156 352.087 169.436 351.98 169.769 351.98C170.102 351.98 170.322 351.987 170.429 352C170.442 351.893 170.449 351.753 170.449 351.58C170.449 350.58 170.336 349.7 170.109 348.94ZM177.3 352.06C177.726 351.94 178.153 351.88 178.58 351.88C179.02 351.88 179.393 352.013 179.7 352.28C180.006 352.547 180.16 352.893 180.16 353.32C180.16 353.733 180.086 354.46 179.94 355.5C179.806 356.527 179.74 357.327 179.74 357.9C179.74 359.393 179.88 360.68 180.16 361.76C179.746 361.92 179.3 362 178.82 362C178.34 362 177.96 361.893 177.68 361.68C177.4 361.453 177.26 361.133 177.26 360.72C177.26 360.293 177.34 359.6 177.5 358.64C177.66 357.68 177.74 356.887 177.74 356.26C177.74 354.593 177.593 353.193 177.3 352.06ZM177.56 347.54C178.026 347.327 178.486 347.22 178.94 347.22C179.393 347.22 179.726 347.34 179.94 347.58C180.166 347.807 180.28 348.147 180.28 348.6C180.28 349.053 180.126 349.453 179.82 349.8C179.526 350.147 179.14 350.32 178.66 350.32C177.673 350.32 177.18 349.807 177.18 348.78C177.18 348.327 177.306 347.913 177.56 347.54ZM185.957 362.24C184.491 362.24 183.411 361.813 182.717 360.96C182.024 360.093 181.677 358.893 181.677 357.36C181.677 355.813 182.137 354.473 183.057 353.34C183.977 352.207 185.157 351.64 186.597 351.64C189.557 351.64 191.037 353.307 191.037 356.64C191.037 358.2 190.557 359.527 189.597 360.62C188.637 361.7 187.424 362.24 185.957 362.24ZM184.517 353.84C184.277 354.613 184.157 355.387 184.157 356.16C184.157 356.933 184.184 357.533 184.237 357.96C184.291 358.387 184.391 358.813 184.537 359.24C184.844 360.107 185.444 360.54 186.337 360.54C187.244 360.54 187.837 360.3 188.117 359.82C188.411 359.34 188.557 358.6 188.557 357.6C188.557 354.76 187.884 353.34 186.537 353.34C185.764 353.34 185.091 353.507 184.517 353.84ZM201.93 353.92L201.73 358.32C201.73 359.533 201.917 360.72 202.29 361.88C201.917 362.04 201.49 362.12 201.01 362.12C199.877 362.12 199.31 361.487 199.31 360.22C199.31 359.647 199.384 358.687 199.53 357.34C199.677 355.98 199.75 355.127 199.75 354.78C199.75 354.113 199.45 353.78 198.85 353.78C198.41 353.78 197.91 354.1 197.35 354.74C196.804 355.367 196.33 356.073 195.93 356.86C195.544 357.633 195.317 358.273 195.25 358.78C195.304 359.82 195.437 360.813 195.65 361.76C195.224 361.92 194.777 362 194.31 362C193.857 362 193.484 361.893 193.19 361.68C192.91 361.453 192.77 361.147 192.77 360.76C192.77 360.36 192.83 359.653 192.95 358.64C193.07 357.613 193.13 356.6 193.13 355.6C193.13 354.587 192.977 353.427 192.67 352.12C193.097 351.96 193.55 351.88 194.03 351.88C194.51 351.88 194.897 352.02 195.19 352.3C195.497 352.58 195.65 352.927 195.65 353.34C195.65 353.753 195.597 354.413 195.49 355.32C195.997 354.373 196.657 353.547 197.47 352.84C198.284 352.12 199.097 351.76 199.91 351.76C201.257 351.76 201.93 352.48 201.93 353.92Z" fill="black"/>
<g filter="url(#filter0_d_4_209)">
<path d="M119.339 247C120.192 246.573 121.086 246.36 122.019 246.36C122.979 246.36 123.752 246.653 124.339 247.24C124.952 247.827 125.259 248.533 125.259 249.36C125.259 250.187 125.139 252.013 124.899 254.84C124.659 257.64 124.539 259.867 124.539 261.52C124.539 266.827 124.779 271.24 125.259 274.76C124.406 275.08 123.446 275.24 122.379 275.24C121.339 275.24 120.526 275.067 119.939 274.72C118.232 273.733 114.246 267.493 107.979 256C107.872 257.04 107.819 259.48 107.819 263.32C107.819 267.133 108.112 270.867 108.699 274.52C107.872 274.84 106.979 275 106.019 275C105.059 275 104.272 274.693 103.659 274.08C103.072 273.467 102.779 272.733 102.779 271.88C102.779 271.027 102.899 269.24 103.139 266.52C103.406 263.8 103.539 261.747 103.539 260.36C103.539 255.053 103.286 250.653 102.779 247.16C103.526 246.787 104.619 246.6 106.059 246.6C107.499 246.6 108.512 247.173 109.099 248.32C113.046 256.347 116.819 263.147 120.419 268.72C120.339 263.6 120.299 260.893 120.299 260.6C120.299 255.613 119.979 251.08 119.339 247ZM147.38 256.16C146.66 259.227 146.3 262.307 146.3 265.4C146.3 268.467 146.646 271.507 147.34 274.52C146.38 274.84 145.393 275 144.38 275C143.366 275 142.66 274.707 142.26 274.12C141.86 273.507 141.66 272.64 141.66 271.52C141.66 270.373 141.833 268.813 142.18 266.84C140.286 270.893 138.46 273.453 136.7 274.52C135.9 275 135.073 275.24 134.22 275.24C132.193 275.24 130.62 274.493 129.5 273C128.38 271.48 127.82 269.6 127.82 267.36C127.82 263.947 128.766 260.96 130.66 258.4C132.553 255.813 135.006 254.52 138.02 254.52C141.06 254.52 144.18 255.067 147.38 256.16ZM142.14 258.56C140.726 258.133 139.526 257.92 138.54 257.92C136.54 257.92 135.046 258.36 134.06 259.24C133.153 261.48 132.7 263.76 132.7 266.08C132.7 267.307 132.886 268.547 133.26 269.8C133.66 271.053 134.26 271.68 135.06 271.68C135.993 271.68 137.193 270.307 138.66 267.56C140.126 264.813 141.286 261.813 142.14 258.56ZM181.456 258.84L181.056 267.4C181.056 269.987 181.43 272.44 182.176 274.76C181.43 275.08 180.576 275.24 179.616 275.24C177.35 275.24 176.216 273.973 176.216 271.44C176.216 270.293 176.363 268.373 176.656 265.68C176.95 262.96 177.096 261.253 177.096 260.56C177.096 259.227 176.55 258.56 175.456 258.56C174.256 258.56 172.816 259.787 171.136 262.24C169.483 264.693 168.656 266.613 168.656 268C168.79 270.107 169.163 272.2 169.776 274.28C168.763 274.6 167.91 274.76 167.216 274.76C164.95 274.76 163.816 273.493 163.816 270.96C163.816 269.893 163.963 268.107 164.256 265.6C164.55 263.093 164.696 261.52 164.696 260.88C164.696 259.547 164.096 258.88 162.896 258.88C162.07 258.88 161.123 259.493 160.056 260.72C158.99 261.947 158.083 263.307 157.336 264.8C156.616 266.267 156.23 267.44 156.176 268.32C156.31 270.613 156.576 272.68 156.976 274.52C156.123 274.84 155.23 275 154.296 275C153.39 275 152.643 274.787 152.056 274.36C151.496 273.907 151.216 273.293 151.216 272.52C151.216 271.72 151.336 270.307 151.576 268.28C151.816 266.227 151.936 264.2 151.936 262.2C151.936 260.173 151.63 257.853 151.016 255.24C151.87 254.92 152.776 254.76 153.736 254.76C154.696 254.76 155.47 255.04 156.056 255.6C156.67 256.16 156.976 256.907 156.976 257.84C156.976 258.32 156.883 259.493 156.696 261.36C157.683 259.6 158.936 258.08 160.456 256.8C161.976 255.493 163.496 254.84 165.016 254.84C167.71 254.84 169.056 256.28 169.056 259.16C169.056 259.88 169.016 260.68 168.936 261.56C169.923 259.693 171.19 258.053 172.736 256.64C174.31 255.227 175.87 254.52 177.416 254.52C180.11 254.52 181.456 255.96 181.456 258.84ZM189.848 265.92C189.848 267.84 190.155 269.36 190.768 270.48C191.381 271.573 192.408 272.12 193.848 272.12C195.288 272.12 196.408 271.64 197.208 270.68C198.035 269.693 198.448 268.507 198.448 267.12C199.355 267.12 200.141 267.347 200.808 267.8C201.475 268.253 201.808 268.88 201.808 269.68C201.808 271.333 200.928 272.72 199.168 273.84C197.408 274.933 195.555 275.48 193.608 275.48C190.568 275.48 188.368 274.667 187.008 273.04C185.648 271.387 184.968 268.947 184.968 265.72C184.968 262.493 185.875 259.787 187.688 257.6C189.528 255.387 191.968 254.28 195.008 254.28C197.088 254.28 198.755 254.76 200.008 255.72C201.288 256.653 201.928 258.12 201.928 260.12C201.928 262.093 201.021 263.587 199.208 264.6C197.421 265.587 195.235 266.08 192.648 266.08C191.741 266.08 190.808 266.027 189.848 265.92ZM189.888 262.76C190.688 262.92 191.528 263 192.408 263C194.328 263 195.941 262.64 197.248 261.92C197.408 261.28 197.488 260.773 197.488 260.4C197.488 259.467 197.155 258.76 196.488 258.28C195.821 257.8 194.901 257.56 193.728 257.56C192.581 257.56 191.541 257.933 190.608 258.68C190.128 260.067 189.888 261.427 189.888 262.76Z" fill="black"/>
</g>
<defs>
<filter id="filter0_d_4_209" x="98.7789" y="246.36" width="107.149" height="37.12" filterUnits="userSpaceOnUse" color-interpolation-filters="sRGB">
<feFlood flood-opacity="0" result="BackgroundImageFix"/>
<feColorMatrix in="SourceAlpha" type="matrix" values="0 0 0 0 0 0 0 0 0 0 0 0 0 0 0 0 0 0 127 0" result="hardAlpha"/>
<feOffset dy="4"/>
<feGaussianBlur stdDeviation="2"/>
<feComposite in2="hardAlpha" operator="out"/>
<feColorMatrix type="matrix" values="0 0 0 0 0 0 0 0 0 0 0 0 0 0 0 0 0 0 0.25 0"/>
<feBlend mode="normal" in2="BackgroundImageFix" result="effect1_dropShadow_4_209"/>
<feBlend mode="normal" in="SourceGraphic" in2="effect1_dropShadow_4_209" result="shape"/>
</filter>
</defs>
</svg>
