<svg width="682" height="357" viewBox="0 0 682 357" fill="none" xmlns="http://www.w3.org/2000/svg">
<rect x="126" y="180" width="43" height="43" rx="21.5" fill="#FF0000"/>
<path d="M142.692 197.577C142.947 197.577 143.192 197.678 143.372 197.859C143.553 198.039 143.654 198.283 143.654 198.538V210.077C143.654 210.332 143.553 210.576 143.372 210.757C143.192 210.937 142.947 211.038 142.692 211.038C142.437 211.038 142.193 210.937 142.012 210.757C141.832 210.576 141.731 210.332 141.731 210.077V198.538C141.731 198.283 141.832 198.039 142.012 197.859C142.193 197.678 142.437 197.577 142.692 197.577ZM147.5 197.577C147.755 197.577 148 197.678 148.18 197.859C148.36 198.039 148.462 198.283 148.462 198.538V210.077C148.462 210.332 148.36 210.576 148.18 210.757C148 210.937 147.755 211.038 147.5 211.038C147.245 211.038 147 210.937 146.82 210.757C146.64 210.576 146.538 210.332 146.538 210.077V198.538C146.538 198.283 146.64 198.039 146.82 197.859C147 197.678 147.245 197.577 147.5 197.577ZM153.269 198.538C153.269 198.283 153.168 198.039 152.988 197.859C152.807 197.678 152.563 197.577 152.308 197.577C152.053 197.577 151.808 197.678 151.628 197.859C151.447 198.039 151.346 198.283 151.346 198.538V210.077C151.346 210.332 151.447 210.576 151.628 210.757C151.808 210.937 152.053 211.038 152.308 211.038C152.563 211.038 152.807 210.937 152.988 210.757C153.168 210.576 153.269 210.332 153.269 210.077V198.538Z" fill="black"/>
<path fill-rule="evenodd" clip-rule="evenodd" d="M160 192.769C160 193.279 159.797 193.768 159.437 194.129C159.076 194.49 158.587 194.692 158.077 194.692H157.115V212C157.115 213.02 156.71 213.998 155.989 214.72C155.268 215.441 154.289 215.846 153.269 215.846H141.731C140.711 215.846 139.732 215.441 139.011 214.72C138.29 213.998 137.885 213.02 137.885 212V194.692H136.923C136.413 194.692 135.924 194.49 135.563 194.129C135.203 193.768 135 193.279 135 192.769V190.846C135 190.336 135.203 189.847 135.563 189.486C135.924 189.126 136.413 188.923 136.923 188.923H143.654C143.654 188.413 143.856 187.924 144.217 187.563C144.578 187.203 145.067 187 145.577 187H149.423C149.933 187 150.422 187.203 150.783 187.563C151.144 187.924 151.346 188.413 151.346 188.923H158.077C158.587 188.923 159.076 189.126 159.437 189.486C159.797 189.847 160 190.336 160 190.846V192.769ZM140.035 194.692L139.808 194.806V212C139.808 212.51 140.01 212.999 140.371 213.36C140.732 213.72 141.221 213.923 141.731 213.923H153.269C153.779 213.923 154.268 213.72 154.629 213.36C154.99 212.999 155.192 212.51 155.192 212V194.806L154.965 194.692H140.035ZM136.923 192.769V190.846H158.077V192.769H136.923Z" fill="black"/>
<rect x="20" y="180" width="43" height="43" rx="21.5" fill="#FF0000"/>
<path d="M30.1563 205.021C29.4134 206.357 28.0572 208.798 30.4575 210.425C31.2114 210.933 32.0576 211.284 32.9434 211.458C33.6182 211.559 33.6534 212.616 32.8599 212.591C32.0136 212.547 27.8924 212.16 27.2308 209.015C26.8879 207.182 27.2748 205.535 28.3386 203.751L29.8706 200.995L27 199.334L34.649 194.71V203.651L31.7785 202.099L30.1563 205.021ZM39.4846 190.315C42.0233 188.912 43.4916 191.276 44.3005 192.566L46.0721 195.389L43.2894 197.195L51.1341 201.384L50.7011 192.385L47.9228 194.189L46.2523 191.531C45.1049 189.864 44.2653 188.632 42.219 188.078C38.6208 187.378 36.4096 191.623 36.4316 191.596C36.0712 192.238 36.9064 192.803 37.4229 192.065C37.99 191.35 38.6912 190.756 39.4846 190.315ZM53.9783 204.145C53.7848 203.72 52.7716 203.829 53.0573 204.741C53.3452 205.613 53.4617 206.529 53.4024 207.446C53.198 210.378 50.4395 210.356 48.9361 210.356H45.6391V207.003L37.946 211.474L45.6127 216L45.6237 212.591H48.9361C50.8923 212.625 52.4529 212.198 53.7717 210.998C56.4093 208.626 53.9783 204.145 53.9783 204.145Z" fill="black"/>
<rect x="72" y="180" width="43" height="43" rx="21.5" fill="#FF0000"/>
<g clip-path="url(#clip0_11_628)">
<path d="M90.5716 203.558L80 214.129L80.8719 215.001L91.4165 204.457C91.1183 204.182 90.8401 203.886 90.584 203.572L90.5716 203.557V203.558ZM84.9792 193.92C84.8401 193.976 84.7272 194.083 84.6626 194.218C84.5981 194.354 84.5866 194.509 84.6305 194.652L84.6294 194.648C84.9198 195.574 85.3948 196.433 86.0256 197.171C86.6565 197.909 87.4302 198.513 88.3003 198.944L88.3419 198.963C88.4195 199.008 88.514 199.035 88.6141 199.035H88.6299H88.6287H88.6299C88.7556 199.035 88.8784 198.997 88.982 198.926L88.9797 198.927C92.5525 196.333 96.483 194.271 100.648 192.806L100.971 192.707C100.994 192.699 101.013 192.684 101.027 192.664C101.04 192.644 101.046 192.62 101.044 192.596C101.042 192.573 101.031 192.55 101.015 192.533C100.999 192.515 100.977 192.504 100.953 192.5H100.952C99.1176 192.089 97.2429 191.884 95.363 191.889H95.3045H95.3079H95.3011C91.6956 191.885 88.1252 192.598 84.7981 193.987L84.9781 193.921L84.9792 193.92ZM88.6198 198.289C87.9093 197.908 87.261 197.42 86.6971 196.844L86.696 196.843C86.0887 196.206 85.6346 195.439 85.3685 194.6L85.3573 194.56C88.3036 193.334 91.727 192.622 95.3158 192.618H95.3169C96.4458 192.619 97.5735 192.693 98.693 192.839L98.5614 192.825C94.7645 194.365 91.4908 196.2 88.487 198.384L88.622 198.29L88.6198 198.289Z" fill="black"/>
<path d="M84.4302 193.436C87.6331 192.039 91.3659 191.225 95.2887 191.225C96.992 191.225 98.6592 191.378 100.277 191.672L100.107 191.646C100.131 191.651 100.155 191.647 100.177 191.636C100.198 191.625 100.215 191.606 100.224 191.584V191.583C100.234 191.56 100.236 191.534 100.23 191.509C100.223 191.485 100.208 191.463 100.188 191.448C97.229 189.202 93.6139 187.99 89.8989 187.999C87.3642 187.999 84.959 188.551 82.7967 189.541L82.9036 189.497C82.2927 189.848 82.7416 192.185 83.7474 193.291C83.8333 193.382 83.9452 193.445 84.068 193.471C84.1907 193.496 84.3184 193.483 84.4336 193.434L84.4291 193.435L84.4302 193.436ZM102.49 194.02C102.484 193.997 102.471 193.977 102.454 193.961C102.437 193.945 102.416 193.935 102.393 193.93H102.383C102.36 193.93 102.338 193.937 102.318 193.949C102.299 193.962 102.284 193.98 102.275 194.001V194.002C100.671 198.613 98.5434 202.612 95.903 206.21L95.993 206.082C95.9209 206.183 95.8815 206.304 95.8801 206.428C95.8787 206.552 95.9154 206.674 95.9851 206.776L95.984 206.774C96.9882 208.383 98.4339 209.669 100.149 210.479L100.208 210.505C100.269 210.527 100.34 210.541 100.414 210.541H100.425C100.543 210.539 100.658 210.504 100.757 210.439C100.855 210.374 100.933 210.283 100.981 210.175L100.982 210.172C102.323 207.086 103.103 203.491 103.103 199.715C103.103 197.696 102.88 195.731 102.458 193.84L102.492 194.019L102.49 194.02ZM102.266 202.065C102.014 204.782 101.349 207.445 100.294 209.962L100.36 209.786C98.8491 209.041 97.5701 207.898 96.6612 206.479L96.6387 206.442C98.8202 203.432 100.637 200.175 102.051 196.737L102.167 196.42C102.41 198.326 102.441 200.254 102.259 202.167L102.267 202.064L102.266 202.065Z" fill="black"/>
<path d="M103.528 194.793C103.515 194.774 103.495 194.759 103.473 194.752C103.451 194.744 103.427 194.744 103.405 194.751C103.382 194.759 103.363 194.773 103.349 194.792C103.335 194.811 103.328 194.833 103.328 194.857L103.329 194.875V194.874C103.598 196.324 103.751 197.993 103.751 199.698C103.751 203.669 102.917 207.446 101.417 210.863L101.486 210.684C101.433 210.811 101.423 210.952 101.46 211.084C101.497 211.216 101.578 211.331 101.69 211.411L101.692 211.412C102.887 212.23 105.292 212.661 105.468 212.095C105.477 212.077 105.486 212.05 105.495 212.032C106.431 209.987 106.977 207.596 106.977 205.077C106.977 201.195 105.68 197.616 103.497 194.75L103.527 194.792L103.528 194.793ZM101.773 193.214C101.759 193.201 101.741 193.192 101.722 193.188C101.703 193.183 101.683 193.183 101.664 193.187H101.665C97.0291 194.748 93.005 196.845 89.3825 199.463L89.5152 199.371C89.404 199.451 89.3231 199.566 89.2859 199.698C89.2487 199.83 89.2574 199.97 89.3105 200.096L89.3094 200.091C89.8447 201.464 90.643 202.719 91.6595 203.786L91.655 203.781C92.5414 204.662 93.6005 205.35 94.7656 205.801L94.8275 205.822C94.9513 205.87 95.0873 205.874 95.2141 205.836C95.3409 205.797 95.4511 205.717 95.5272 205.608L95.5284 205.606C98.1754 201.952 100.259 197.921 101.708 193.649L101.802 193.328C101.807 193.316 101.81 193.304 101.81 193.291C101.81 193.276 101.807 193.262 101.8 193.249C101.794 193.236 101.785 193.224 101.773 193.215V193.214Z" fill="black"/>
</g>
<rect x="180" y="180" width="43" height="43" rx="21.5" fill="#FF0000"/>
<path d="M205.189 188H207.421C209.057 188 210.396 189.326 210.396 190.947V200.379L205.189 188ZM213.223 190.358L215.158 191.242C216.646 191.832 217.39 193.6 216.795 195.074L213.223 203.768V190.358ZM210.099 207.6L202.659 189.916C202.213 188.737 201.171 188.147 199.981 188.147C199.534 188.147 199.237 188.295 198.791 188.442L187.78 192.863C186.292 193.453 185.548 195.074 186.292 196.547L193.732 214.232C194.178 215.411 195.219 216 196.41 216C196.856 216 197.154 216 197.6 215.705L208.611 211.284C209.801 210.842 210.396 209.811 210.396 208.632C210.248 208.337 210.248 207.895 210.099 207.6ZM200.278 206.863L195.517 203.326L196.112 197.432L200.874 200.968L200.278 206.863Z" fill="black"/>
<rect x="124" y="231" width="43" height="43" rx="21.5" fill="#1BC000"/>
<path d="M140.692 248.577C140.947 248.577 141.192 248.678 141.372 248.859C141.553 249.039 141.654 249.283 141.654 249.538V261.077C141.654 261.332 141.553 261.576 141.372 261.757C141.192 261.937 140.947 262.038 140.692 262.038C140.437 262.038 140.193 261.937 140.012 261.757C139.832 261.576 139.731 261.332 139.731 261.077V249.538C139.731 249.283 139.832 249.039 140.012 248.859C140.193 248.678 140.437 248.577 140.692 248.577ZM145.5 248.577C145.755 248.577 146 248.678 146.18 248.859C146.36 249.039 146.462 249.283 146.462 249.538V261.077C146.462 261.332 146.36 261.576 146.18 261.757C146 261.937 145.755 262.038 145.5 262.038C145.245 262.038 145 261.937 144.82 261.757C144.64 261.576 144.538 261.332 144.538 261.077V249.538C144.538 249.283 144.64 249.039 144.82 248.859C145 248.678 145.245 248.577 145.5 248.577ZM151.269 249.538C151.269 249.283 151.168 249.039 150.988 248.859C150.807 248.678 150.563 248.577 150.308 248.577C150.053 248.577 149.808 248.678 149.628 248.859C149.447 249.039 149.346 249.283 149.346 249.538V261.077C149.346 261.332 149.447 261.576 149.628 261.757C149.808 261.937 150.053 262.038 150.308 262.038C150.563 262.038 150.807 261.937 150.988 261.757C151.168 261.576 151.269 261.332 151.269 261.077V249.538Z" fill="black"/>
<path fill-rule="evenodd" clip-rule="evenodd" d="M158 243.769C158 244.279 157.797 244.768 157.437 245.129C157.076 245.49 156.587 245.692 156.077 245.692H155.115V263C155.115 264.02 154.71 264.998 153.989 265.72C153.268 266.441 152.289 266.846 151.269 266.846H139.731C138.711 266.846 137.732 266.441 137.011 265.72C136.29 264.998 135.885 264.02 135.885 263V245.692H134.923C134.413 245.692 133.924 245.49 133.563 245.129C133.203 244.768 133 244.279 133 243.769V241.846C133 241.336 133.203 240.847 133.563 240.486C133.924 240.126 134.413 239.923 134.923 239.923H141.654C141.654 239.413 141.856 238.924 142.217 238.563C142.578 238.203 143.067 238 143.577 238H147.423C147.933 238 148.422 238.203 148.783 238.563C149.144 238.924 149.346 239.413 149.346 239.923H156.077C156.587 239.923 157.076 240.126 157.437 240.486C157.797 240.847 158 241.336 158 241.846V243.769ZM138.035 245.692L137.808 245.806V263C137.808 263.51 138.01 263.999 138.371 264.36C138.732 264.72 139.221 264.923 139.731 264.923H151.269C151.779 264.923 152.268 264.72 152.629 264.36C152.99 263.999 153.192 263.51 153.192 263V245.806L152.965 245.692H138.035ZM134.923 243.769V241.846H156.077V243.769H134.923Z" fill="black"/>
<rect x="70" y="231" width="43" height="43" rx="21.5" fill="#1BC000"/>
<g clip-path="url(#clip1_11_628)">
<path d="M88.5716 254.558L78 265.129L78.8719 266.001L89.4165 255.457C89.1183 255.182 88.8401 254.886 88.584 254.572L88.5716 254.557V254.558ZM82.9792 244.92C82.8401 244.976 82.7272 245.083 82.6626 245.218C82.5981 245.354 82.5866 245.509 82.6305 245.652L82.6294 245.648C82.9198 246.574 83.3948 247.433 84.0256 248.171C84.6565 248.909 85.4302 249.513 86.3003 249.944L86.3419 249.963C86.4195 250.008 86.514 250.035 86.6141 250.035H86.6299H86.6287H86.6299C86.7556 250.035 86.8784 249.997 86.982 249.926L86.9797 249.927C90.5525 247.333 94.483 245.271 98.6483 243.806L98.9711 243.707C98.9939 243.699 99.0134 243.684 99.0265 243.664C99.0397 243.644 99.0457 243.62 99.0436 243.596C99.0415 243.573 99.0315 243.55 99.0151 243.533C98.9987 243.515 98.9768 243.504 98.9531 243.5H98.952C97.1176 243.089 95.2429 242.884 93.363 242.889H93.3045H93.3079H93.3011C89.6956 242.885 86.1252 243.598 82.7981 244.987L82.9781 244.921L82.9792 244.92ZM86.6198 249.289C85.9093 248.908 85.261 248.42 84.6971 247.844L84.696 247.843C84.0887 247.206 83.6346 246.439 83.3685 245.6L83.3573 245.56C86.3036 244.334 89.727 243.622 93.3158 243.618H93.3169C94.4458 243.619 95.5735 243.693 96.693 243.839L96.5614 243.825C92.7645 245.365 89.4908 247.2 86.487 249.384L86.622 249.29L86.6198 249.289Z" fill="black"/>
<path d="M82.4302 244.436C85.6331 243.039 89.3659 242.225 93.2887 242.225C94.992 242.225 96.6592 242.378 98.277 242.672L98.1071 242.646C98.1308 242.651 98.1553 242.647 98.1766 242.636C98.198 242.625 98.2147 242.606 98.2241 242.584V242.583C98.2342 242.56 98.2361 242.534 98.2296 242.509C98.2231 242.485 98.2084 242.463 98.1881 242.448C95.229 240.202 91.6139 238.99 87.8989 238.999C85.3642 238.999 82.959 239.551 80.7967 240.541L80.9036 240.497C80.2927 240.848 80.7416 243.185 81.7474 244.291C81.8333 244.382 81.9452 244.445 82.068 244.471C82.1907 244.496 82.3184 244.483 82.4336 244.434L82.4291 244.435L82.4302 244.436ZM100.49 245.02C100.484 244.997 100.471 244.977 100.454 244.961C100.437 244.945 100.416 244.935 100.393 244.93H100.383C100.36 244.93 100.338 244.937 100.318 244.949C100.299 244.962 100.284 244.98 100.275 245.001V245.002C98.6707 249.613 96.5434 253.612 93.903 257.21L93.993 257.082C93.9209 257.183 93.8815 257.304 93.8801 257.428C93.8787 257.552 93.9154 257.674 93.9851 257.776L93.984 257.774C94.9882 259.383 96.4339 260.669 98.1487 261.479L98.2084 261.505C98.2691 261.527 98.34 261.541 98.4142 261.541H98.4255C98.5434 261.539 98.6583 261.504 98.7568 261.439C98.8553 261.374 98.9331 261.283 98.9812 261.175L98.9824 261.172C100.323 258.086 101.103 254.491 101.103 250.715C101.103 248.696 100.88 246.731 100.458 244.84L100.492 245.019L100.49 245.02ZM100.266 253.065C100.014 255.782 99.3491 258.445 98.2939 260.962L98.3602 260.786C96.8491 260.041 95.5701 258.898 94.6612 257.479L94.6387 257.442C96.8202 254.432 98.6371 251.175 100.051 247.737L100.167 247.42C100.41 249.326 100.441 251.254 100.259 253.167L100.267 253.064L100.266 253.065Z" fill="black"/>
<path d="M101.528 245.793C101.515 245.774 101.495 245.759 101.473 245.752C101.451 245.744 101.427 245.744 101.405 245.751C101.382 245.759 101.363 245.773 101.349 245.792C101.335 245.811 101.328 245.833 101.328 245.857L101.329 245.875V245.874C101.598 247.324 101.751 248.993 101.751 250.698C101.751 254.669 100.917 258.446 99.4166 261.863L99.4864 261.684C99.4326 261.811 99.4234 261.952 99.4604 262.084C99.4974 262.216 99.5784 262.331 99.69 262.411L99.6922 262.412C100.887 263.23 103.292 263.661 103.468 263.095C103.477 263.077 103.486 263.05 103.495 263.032C104.431 260.987 104.977 258.596 104.977 256.077C104.977 252.195 103.68 248.616 101.497 245.75L101.527 245.792L101.528 245.793ZM99.7732 244.214C99.7585 244.201 99.7409 244.192 99.722 244.188C99.703 244.183 99.6831 244.183 99.6641 244.187H99.6652C95.0291 245.748 91.005 247.845 87.3825 250.463L87.5152 250.371C87.404 250.451 87.3231 250.566 87.2859 250.698C87.2487 250.83 87.2574 250.97 87.3105 251.096L87.3094 251.091C87.8447 252.464 88.643 253.719 89.6595 254.786L89.655 254.781C90.5414 255.662 91.6005 256.35 92.7656 256.801L92.8275 256.822C92.9513 256.87 93.0873 256.874 93.2141 256.836C93.3409 256.797 93.4511 256.717 93.5272 256.608L93.5284 256.606C96.1754 252.952 98.2585 248.921 99.708 244.649L99.8025 244.328C99.8075 244.316 99.8102 244.304 99.8104 244.291C99.8102 244.276 99.8068 244.262 99.8004 244.249C99.794 244.236 99.7847 244.224 99.7732 244.215V244.214Z" fill="black"/>
</g>
<rect x="178" y="231" width="43" height="43" rx="21.5" fill="#1BC000"/>
<path d="M203.189 239H205.421C207.057 239 208.396 240.326 208.396 241.947V251.379L203.189 239ZM211.223 241.358L213.158 242.242C214.646 242.832 215.39 244.6 214.795 246.074L211.223 254.768V241.358ZM208.099 258.6L200.659 240.916C200.213 239.737 199.171 239.147 197.981 239.147C197.534 239.147 197.237 239.295 196.791 239.442L185.78 243.863C184.292 244.453 183.548 246.074 184.292 247.547L191.732 265.232C192.178 266.411 193.219 267 194.41 267C194.856 267 195.154 267 195.6 266.705L206.611 262.284C207.801 261.842 208.396 260.811 208.396 259.632C208.248 259.337 208.248 258.895 208.099 258.6ZM198.278 257.863L193.517 254.326L194.112 248.432L198.874 251.968L198.278 257.863Z" fill="black"/>
<rect x="20" y="231" width="43" height="43" rx="21.5" fill="#1BC000"/>
<path d="M30.1563 256.021C29.4134 257.357 28.0572 259.798 30.4575 261.425C31.2114 261.933 32.0576 262.284 32.9434 262.458C33.6182 262.559 33.6534 263.616 32.8599 263.591C32.0136 263.547 27.8924 263.16 27.2308 260.015C26.8879 258.182 27.2748 256.535 28.3386 254.751L29.8706 251.995L27 250.334L34.649 245.71V254.651L31.7785 253.099L30.1563 256.021ZM39.4846 241.315C42.0233 239.912 43.4916 242.276 44.3005 243.566L46.0721 246.389L43.2894 248.195L51.1341 252.384L50.7011 243.385L47.9228 245.189L46.2523 242.531C45.1049 240.864 44.2653 239.632 42.219 239.078C38.6208 238.378 36.4096 242.623 36.4316 242.596C36.0712 243.238 36.9064 243.803 37.4229 243.065C37.99 242.35 38.6912 241.756 39.4846 241.315ZM53.9783 255.145C53.7848 254.72 52.7716 254.829 53.0573 255.741C53.3452 256.613 53.4617 257.529 53.4024 258.446C53.198 261.378 50.4395 261.356 48.9361 261.356H45.6391V258.003L37.946 262.474L45.6127 267L45.6237 263.591H48.9361C50.8923 263.625 52.4529 263.198 53.7717 261.998C56.4093 259.626 53.9783 255.145 53.9783 255.145Z" fill="black"/>
<rect x="0.5" y="160.5" width="242" height="196" rx="4.5" stroke="#7B61FF" stroke-dasharray="10 5"/>
<path d="M44.3186 21.1184C45.2211 20.3944 46.3427 20 47.4987 20C48.6548 20 49.7764 20.3944 50.6788 21.1184L70.0902 36.6748C70.9216 37.3411 71.5234 38.2519 71.8109 39.2789C72.0984 40.306 72.0572 41.3975 71.693 42.3998L63.9819 63.643C63.6251 64.6269 62.9746 65.4768 62.1189 66.0774C61.2632 66.678 60.2438 67.0001 59.199 67H35.7985C34.7537 67.0001 33.7342 66.678 32.8785 66.0774C32.0228 65.4768 31.3724 64.6269 31.0156 63.643L23.307 42.3998C22.9428 41.3975 22.9016 40.306 23.1891 39.2789C23.4766 38.2519 24.0784 37.3411 24.9098 36.6748L44.3186 21.1184Z" fill="#1BC000" stroke="black" stroke-width="2"/>
<path d="M35.3105 49.424C33.9172 49.4387 32.8392 49.5487 32.0765 49.754C31.9005 49.446 31.8125 49.094 31.8125 48.698C31.8125 48.2873 31.9739 47.9573 32.2965 47.708C32.6339 47.444 33.0665 47.312 33.5945 47.312C33.7559 47.312 34.3792 47.378 35.4645 47.51C35.4645 46.0727 35.3545 44.98 35.1345 44.232C35.4425 44.056 35.7945 43.968 36.1905 43.968C36.6012 43.968 36.9312 44.1367 37.1805 44.474C37.4445 44.7967 37.5765 45.222 37.5765 45.75C37.5765 45.794 37.5032 46.4247 37.3565 47.642C38.7499 47.6273 39.8279 47.5173 40.5905 47.312C40.7665 47.62 40.8545 47.9793 40.8545 48.39C40.8545 48.786 40.6859 49.116 40.3485 49.38C40.0259 49.6293 39.6005 49.754 39.0725 49.754C38.9112 49.754 38.2879 49.688 37.2025 49.556C37.2025 50.9933 37.3125 52.086 37.5325 52.834C37.2245 53.01 36.8652 53.098 36.4545 53.098C36.0585 53.098 35.7285 52.9367 35.4645 52.614C35.2152 52.2767 35.0905 51.844 35.0905 51.316C35.0905 51.272 35.1639 50.6413 35.3105 49.424ZM43.0652 42.692C43.8865 42.3547 44.7665 41.768 45.7052 40.932C46.1599 40.5213 46.5852 40.1693 46.9812 39.876C47.3772 39.5827 47.8612 39.436 48.4332 39.436C49.0199 39.436 49.5185 39.5387 49.9292 39.744C49.5772 42.5307 49.4012 45.1413 49.4012 47.576C49.4012 50.0107 49.5332 52.108 49.7972 53.868C49.3865 54.044 48.9099 54.132 48.3672 54.132C47.8245 54.132 47.3845 53.956 47.0472 53.604C46.7099 53.252 46.5412 52.7827 46.5412 52.196C46.5412 51.5947 46.6585 50.3407 46.8932 48.434C47.1279 46.5273 47.2525 44.4593 47.2672 42.23C47.1059 42.3767 46.8345 42.67 46.4532 43.11C45.6025 44.0927 44.9352 44.584 44.4512 44.584C43.9819 44.584 43.6299 44.408 43.3952 44.056C43.1752 43.704 43.0652 43.2493 43.0652 42.692ZM59.9688 50.216C60.1594 49.6147 60.2914 49.0207 60.3648 48.434C60.4528 47.8473 60.4968 47.2167 60.4968 46.542C60.4968 45.8673 60.4601 45.2587 60.3868 44.716C60.3134 44.1733 60.1814 43.6453 59.9908 43.132C59.5801 42.0467 58.7588 41.504 57.5268 41.504C56.7494 41.504 56.0894 41.8047 55.5468 42.406C55.0628 43.5647 54.8208 45.1707 54.8208 47.224C54.8208 49.1013 55.0921 50.4213 55.6348 51.184C56.1334 51.8587 56.8521 52.196 57.7908 52.196C58.3188 52.196 58.7661 52.02 59.1328 51.668C59.5141 51.3013 59.7928 50.8173 59.9688 50.216ZM63.4008 46.388C63.4008 48.588 62.8214 50.4507 61.6628 51.976C60.5041 53.5013 58.9201 54.264 56.9108 54.264C55.7228 54.264 54.7401 53.9487 53.9628 53.318C53.2001 52.6727 52.6648 51.866 52.3568 50.898C52.0634 49.9153 51.9168 48.764 51.9168 47.444C51.9168 45.2293 52.4961 43.3447 53.6548 41.79C54.8281 40.2207 56.4121 39.436 58.4068 39.436C59.5948 39.436 60.5701 39.766 61.3328 40.426C62.1101 41.086 62.6454 41.9147 62.9388 42.912C63.2468 43.9093 63.4008 45.068 63.4008 46.388Z" fill="white"/>
<path d="M44.6264 84.6086C45.3526 84.2095 46.1694 84 47 84C47.8306 84 48.6474 84.2095 49.3736 84.6086L66.4847 94.0163C67.2472 94.4355 67.8825 95.049 68.3248 95.7931C68.7671 96.5373 69.0002 97.385 69 98.2484V116.749C68.9998 117.612 68.7665 118.459 68.3242 119.203C67.8819 119.947 67.2468 120.56 66.4847 120.979L49.3736 130.391C48.6474 130.791 47.8306 131 47 131C46.1694 131 45.3526 130.791 44.6264 130.391L27.5153 120.979C26.7535 120.56 26.1187 119.947 25.6764 119.204C25.2342 118.461 25.0006 117.614 25 116.752V98.2484C24.9998 97.385 25.2329 96.5373 25.6752 95.7931C26.1175 95.049 26.7528 94.4355 27.5153 94.0163L44.6264 84.6086Z" fill="#1BC000" stroke="black" stroke-width="2"/>
<path d="M34.3105 110.424C32.9172 110.439 31.8392 110.549 31.0765 110.754C30.9005 110.446 30.8125 110.094 30.8125 109.698C30.8125 109.287 30.9739 108.957 31.2965 108.708C31.6339 108.444 32.0665 108.312 32.5945 108.312C32.7559 108.312 33.3792 108.378 34.4645 108.51C34.4645 107.073 34.3545 105.98 34.1345 105.232C34.4425 105.056 34.7945 104.968 35.1905 104.968C35.6012 104.968 35.9312 105.137 36.1805 105.474C36.4445 105.797 36.5765 106.222 36.5765 106.75C36.5765 106.794 36.5032 107.425 36.3565 108.642C37.7499 108.627 38.8279 108.517 39.5905 108.312C39.7665 108.62 39.8545 108.979 39.8545 109.39C39.8545 109.786 39.6859 110.116 39.3485 110.38C39.0259 110.629 38.6005 110.754 38.0725 110.754C37.9112 110.754 37.2879 110.688 36.2025 110.556C36.2025 111.993 36.3125 113.086 36.5325 113.834C36.2245 114.01 35.8652 114.098 35.4545 114.098C35.0585 114.098 34.7285 113.937 34.4645 113.614C34.2152 113.277 34.0905 112.844 34.0905 112.316C34.0905 112.272 34.1639 111.641 34.3105 110.424ZM42.0652 103.692C42.8865 103.355 43.7665 102.768 44.7052 101.932C45.1599 101.521 45.5852 101.169 45.9812 100.876C46.3772 100.583 46.8612 100.436 47.4332 100.436C48.0199 100.436 48.5185 100.539 48.9292 100.744C48.5772 103.531 48.4012 106.141 48.4012 108.576C48.4012 111.011 48.5332 113.108 48.7972 114.868C48.3865 115.044 47.9099 115.132 47.3672 115.132C46.8245 115.132 46.3845 114.956 46.0472 114.604C45.7099 114.252 45.5412 113.783 45.5412 113.196C45.5412 112.595 45.6585 111.341 45.8932 109.434C46.1279 107.527 46.2525 105.459 46.2672 103.23C46.1059 103.377 45.8345 103.67 45.4532 104.11C44.6025 105.093 43.9352 105.584 43.4512 105.584C42.9819 105.584 42.6299 105.408 42.3952 105.056C42.1752 104.704 42.0652 104.249 42.0652 103.692ZM58.9688 111.216C59.1594 110.615 59.2914 110.021 59.3648 109.434C59.4528 108.847 59.4968 108.217 59.4968 107.542C59.4968 106.867 59.4601 106.259 59.3868 105.716C59.3134 105.173 59.1814 104.645 58.9908 104.132C58.5801 103.047 57.7588 102.504 56.5268 102.504C55.7494 102.504 55.0894 102.805 54.5468 103.406C54.0628 104.565 53.8208 106.171 53.8208 108.224C53.8208 110.101 54.0921 111.421 54.6348 112.184C55.1334 112.859 55.8521 113.196 56.7908 113.196C57.3188 113.196 57.7661 113.02 58.1328 112.668C58.5141 112.301 58.7928 111.817 58.9688 111.216ZM62.4008 107.388C62.4008 109.588 61.8214 111.451 60.6628 112.976C59.5041 114.501 57.9201 115.264 55.9108 115.264C54.7228 115.264 53.7401 114.949 52.9628 114.318C52.2001 113.673 51.6648 112.866 51.3568 111.898C51.0634 110.915 50.9168 109.764 50.9168 108.444C50.9168 106.229 51.4961 104.345 52.6548 102.79C53.8281 101.221 55.4121 100.436 57.4068 100.436C58.5948 100.436 59.5701 100.766 60.3328 101.426C61.1101 102.086 61.6454 102.915 61.9388 103.912C62.2468 104.909 62.4008 106.068 62.4008 107.388Z" fill="white"/>
<path d="M104.626 84.6086C105.353 84.2095 106.169 84 107 84C107.831 84 108.647 84.2095 109.374 84.6086L126.485 94.0163C127.247 94.4355 127.883 95.049 128.325 95.7931C128.767 96.5373 129 97.385 129 98.2484V116.749C129 117.612 128.766 118.459 128.324 119.203C127.882 119.947 127.247 120.56 126.485 120.979L109.374 130.391C108.647 130.791 107.831 131 107 131C106.169 131 105.353 130.791 104.626 130.391L87.5153 120.979C86.7535 120.56 86.1187 119.947 85.6764 119.204C85.2342 118.461 85.0006 117.614 85 116.752V98.2484C84.9998 97.385 85.2329 96.5373 85.6752 95.7931C86.1175 95.049 86.7528 94.4355 87.5153 94.0163L104.626 84.6086Z" fill="#F4CD00" stroke="black" stroke-width="2"/>
<path d="M108.807 111.216C108.997 110.615 109.129 110.021 109.203 109.434C109.291 108.847 109.335 108.217 109.335 107.542C109.335 106.867 109.298 106.259 109.225 105.716C109.151 105.173 109.019 104.645 108.829 104.132C108.418 103.047 107.597 102.504 106.365 102.504C105.587 102.504 104.927 102.805 104.385 103.406C103.901 104.565 103.659 106.171 103.659 108.224C103.659 110.101 103.93 111.421 104.473 112.184C104.971 112.859 105.69 113.196 106.629 113.196C107.157 113.196 107.604 113.02 107.971 112.668C108.352 112.301 108.631 111.817 108.807 111.216ZM112.239 107.388C112.239 109.588 111.659 111.451 110.501 112.976C109.342 114.501 107.758 115.264 105.749 115.264C104.561 115.264 103.578 114.949 102.801 114.318C102.038 113.673 101.503 112.866 101.195 111.898C100.901 110.915 100.755 109.764 100.755 108.444C100.755 106.229 101.334 104.345 102.493 102.79C103.666 101.221 105.25 100.436 107.245 100.436C108.433 100.436 109.408 100.766 110.171 101.426C110.948 102.086 111.483 102.915 111.777 103.912C112.085 104.909 112.239 106.068 112.239 107.388Z" fill="white"/>
<path d="M164.626 84.6086C165.353 84.2095 166.169 84 167 84C167.831 84 168.647 84.2095 169.374 84.6086L186.485 94.0163C187.247 94.4355 187.883 95.049 188.325 95.7931C188.767 96.5373 189 97.385 189 98.2484V116.749C189 117.612 188.766 118.459 188.324 119.203C187.882 119.947 187.247 120.56 186.485 120.979L169.374 130.391C168.647 130.791 167.831 131 167 131C166.169 131 165.353 130.791 164.626 130.391L147.515 120.979C146.754 120.56 146.119 119.947 145.676 119.204C145.234 118.461 145.001 117.614 145 116.752V98.2484C145 97.385 145.233 96.5373 145.675 95.7931C146.117 95.049 146.753 94.4355 147.515 94.0163L164.626 84.6086Z" fill="#FF0000" stroke="black" stroke-width="2"/>
<path d="M159.196 108.312C159.372 108.62 159.46 108.979 159.46 109.39C159.46 109.786 159.291 110.116 158.954 110.38C158.631 110.629 158.272 110.754 157.876 110.754C157.495 110.754 156.798 110.695 155.786 110.578C154.789 110.461 153.923 110.402 153.19 110.402C152.471 110.402 151.899 110.519 151.474 110.754C151.298 110.446 151.21 110.094 151.21 109.698C151.21 109.287 151.371 108.957 151.694 108.708C152.031 108.444 152.391 108.312 152.772 108.312C153.168 108.312 153.865 108.371 154.862 108.488C155.874 108.605 156.739 108.664 157.458 108.664C158.191 108.664 158.771 108.547 159.196 108.312ZM161.668 103.692C162.489 103.355 163.369 102.768 164.308 101.932C164.762 101.521 165.188 101.169 165.584 100.876C165.98 100.583 166.464 100.436 167.036 100.436C167.622 100.436 168.121 100.539 168.532 100.744C168.18 103.531 168.004 106.141 168.004 108.576C168.004 111.011 168.136 113.108 168.4 114.868C167.989 115.044 167.512 115.132 166.97 115.132C166.427 115.132 165.987 114.956 165.65 114.604C165.312 114.252 165.144 113.783 165.144 113.196C165.144 112.595 165.261 111.341 165.496 109.434C165.73 107.527 165.855 105.459 165.87 103.23C165.708 103.377 165.437 103.67 165.056 104.11C164.205 105.093 163.538 105.584 163.054 105.584C162.584 105.584 162.232 105.408 161.998 105.056C161.778 104.704 161.668 104.249 161.668 103.692ZM178.571 111.216C178.762 110.615 178.894 110.021 178.967 109.434C179.055 108.847 179.099 108.217 179.099 107.542C179.099 106.867 179.063 106.259 178.989 105.716C178.916 105.173 178.784 104.645 178.593 104.132C178.183 103.047 177.361 102.504 176.129 102.504C175.352 102.504 174.692 102.805 174.149 103.406C173.665 104.565 173.423 106.171 173.423 108.224C173.423 110.101 173.695 111.421 174.237 112.184C174.736 112.859 175.455 113.196 176.393 113.196C176.921 113.196 177.369 113.02 177.735 112.668C178.117 112.301 178.395 111.817 178.571 111.216ZM182.003 107.388C182.003 109.588 181.424 111.451 180.265 112.976C179.107 114.501 177.523 115.264 175.513 115.264C174.325 115.264 173.343 114.949 172.565 114.318C171.803 113.673 171.267 112.866 170.959 111.898C170.666 110.915 170.519 109.764 170.519 108.444C170.519 106.229 171.099 104.345 172.257 102.79C173.431 101.221 175.015 100.436 177.009 100.436C178.197 100.436 179.173 100.766 179.935 101.426C180.713 102.086 181.248 102.915 181.541 103.912C181.849 104.909 182.003 106.068 182.003 107.388Z" fill="white"/>
<path d="M104.319 21.1184C105.221 20.3944 106.343 20 107.499 20C108.655 20 109.776 20.3944 110.679 21.1184L130.09 36.6748C130.922 37.3411 131.523 38.2519 131.811 39.2789C132.098 40.306 132.057 41.3975 131.693 42.3998L123.982 63.643C123.625 64.6269 122.975 65.4768 122.119 66.0774C121.263 66.678 120.244 67.0001 119.199 67H95.7985C94.7537 67.0001 93.7342 66.678 92.8785 66.0774C92.0228 65.4768 91.3724 64.6269 91.0156 63.643L83.307 42.3998C82.9428 41.3975 82.9016 40.306 83.1891 39.2789C83.4766 38.2519 84.0784 37.3411 84.9098 36.6748L104.319 21.1184Z" fill="#F4CD00" stroke="black" stroke-width="2"/>
<path d="M109.807 50.216C109.997 49.6147 110.129 49.0207 110.203 48.434C110.291 47.8473 110.335 47.2167 110.335 46.542C110.335 45.8673 110.298 45.2587 110.225 44.716C110.151 44.1733 110.019 43.6453 109.829 43.132C109.418 42.0467 108.597 41.504 107.365 41.504C106.587 41.504 105.927 41.8047 105.385 42.406C104.901 43.5647 104.659 45.1707 104.659 47.224C104.659 49.1013 104.93 50.4213 105.473 51.184C105.971 51.8587 106.69 52.196 107.629 52.196C108.157 52.196 108.604 52.02 108.971 51.668C109.352 51.3013 109.631 50.8173 109.807 50.216ZM113.239 46.388C113.239 48.588 112.659 50.4507 111.501 51.976C110.342 53.5013 108.758 54.264 106.749 54.264C105.561 54.264 104.578 53.9487 103.801 53.318C103.038 52.6727 102.503 51.866 102.195 50.898C101.901 49.9153 101.755 48.764 101.755 47.444C101.755 45.2293 102.334 43.3447 103.493 41.79C104.666 40.2207 106.25 39.436 108.245 39.436C109.433 39.436 110.408 39.766 111.171 40.426C111.948 41.086 112.483 41.9147 112.777 42.912C113.085 43.9093 113.239 45.068 113.239 46.388Z" fill="white"/>
<path d="M164.319 21.1184C165.221 20.3944 166.343 20 167.499 20C168.655 20 169.776 20.3944 170.679 21.1184L190.09 36.6748C190.922 37.3411 191.523 38.2519 191.811 39.2789C192.098 40.306 192.057 41.3975 191.693 42.3998L183.982 63.643C183.625 64.6269 182.975 65.4768 182.119 66.0774C181.263 66.678 180.244 67.0001 179.199 67H155.798C154.754 67.0001 153.734 66.678 152.879 66.0774C152.023 65.4768 151.372 64.6269 151.016 63.643L143.307 42.3998C142.943 41.3975 142.902 40.306 143.189 39.2789C143.477 38.2519 144.078 37.3411 144.91 36.6748L164.319 21.1184Z" fill="#FF0000" stroke="black" stroke-width="2"/>
<path d="M160.196 47.312C160.372 47.62 160.46 47.9793 160.46 48.39C160.46 48.786 160.291 49.116 159.954 49.38C159.631 49.6293 159.272 49.754 158.876 49.754C158.495 49.754 157.798 49.6953 156.786 49.578C155.789 49.4607 154.923 49.402 154.19 49.402C153.471 49.402 152.899 49.5193 152.474 49.754C152.298 49.446 152.21 49.094 152.21 48.698C152.21 48.2873 152.371 47.9573 152.694 47.708C153.031 47.444 153.391 47.312 153.772 47.312C154.168 47.312 154.865 47.3707 155.862 47.488C156.874 47.6053 157.739 47.664 158.458 47.664C159.191 47.664 159.771 47.5467 160.196 47.312ZM162.668 42.692C163.489 42.3547 164.369 41.768 165.308 40.932C165.762 40.5213 166.188 40.1693 166.584 39.876C166.98 39.5827 167.464 39.436 168.036 39.436C168.622 39.436 169.121 39.5387 169.532 39.744C169.18 42.5307 169.004 45.1413 169.004 47.576C169.004 50.0107 169.136 52.108 169.4 53.868C168.989 54.044 168.512 54.132 167.97 54.132C167.427 54.132 166.987 53.956 166.65 53.604C166.312 53.252 166.144 52.7827 166.144 52.196C166.144 51.5947 166.261 50.3407 166.496 48.434C166.73 46.5273 166.855 44.4593 166.87 42.23C166.708 42.3767 166.437 42.67 166.056 43.11C165.205 44.0927 164.538 44.584 164.054 44.584C163.584 44.584 163.232 44.408 162.998 44.056C162.778 43.704 162.668 43.2493 162.668 42.692ZM179.571 50.216C179.762 49.6147 179.894 49.0207 179.967 48.434C180.055 47.8473 180.099 47.2167 180.099 46.542C180.099 45.8673 180.063 45.2587 179.989 44.716C179.916 44.1733 179.784 43.6453 179.593 43.132C179.183 42.0467 178.361 41.504 177.129 41.504C176.352 41.504 175.692 41.8047 175.149 42.406C174.665 43.5647 174.423 45.1707 174.423 47.224C174.423 49.1013 174.695 50.4213 175.237 51.184C175.736 51.8587 176.455 52.196 177.393 52.196C177.921 52.196 178.369 52.02 178.735 51.668C179.117 51.3013 179.395 50.8173 179.571 50.216ZM183.003 46.388C183.003 48.588 182.424 50.4507 181.265 51.976C180.107 53.5013 178.523 54.264 176.513 54.264C175.325 54.264 174.343 53.9487 173.565 53.318C172.803 52.6727 172.267 51.866 171.959 50.898C171.666 49.9153 171.519 48.764 171.519 47.444C171.519 45.2293 172.099 43.3447 173.257 41.79C174.431 40.2207 176.015 39.436 178.009 39.436C179.197 39.436 180.173 39.766 180.935 40.426C181.713 41.086 182.248 41.9147 182.541 42.912C182.849 43.9093 183.003 45.068 183.003 46.388Z" fill="white"/>
<rect x="3.5" y="0.5" width="208" height="150" rx="4.5" stroke="#7B61FF" stroke-dasharray="10 5"/>
<path d="M358.925 194.94C359.352 194.727 359.785 194.62 360.225 194.62C360.665 194.62 361.019 194.76 361.285 195.04C361.565 195.32 361.705 195.733 361.705 196.28C361.705 196.827 361.672 197.447 361.605 198.14C362.605 198.14 363.559 198 364.465 197.72C364.625 197.987 364.705 198.3 364.705 198.66C364.705 199.007 364.545 199.293 364.225 199.52C363.919 199.733 363.605 199.84 363.285 199.84C362.965 199.84 362.605 199.8 362.205 199.72C361.805 199.64 361.545 199.593 361.425 199.58C361.412 199.7 361.372 199.94 361.305 200.3C361.252 200.66 361.205 200.973 361.165 201.24C361.059 201.973 361.005 202.76 361.005 203.6C361.005 205.427 361.599 206.34 362.785 206.34C363.225 206.34 363.732 206.187 364.305 205.88C364.479 206.133 364.565 206.46 364.565 206.86C364.565 207.26 364.345 207.573 363.905 207.8C363.479 208.013 362.965 208.12 362.365 208.12C360.019 208.12 358.845 206.787 358.845 204.12C358.845 203.733 358.899 203.033 359.005 202.02C359.125 201.007 359.185 200.187 359.185 199.56C358.545 199.6 358.032 199.713 357.645 199.9C357.485 199.66 357.405 199.387 357.405 199.08C357.405 198.76 357.519 198.5 357.745 198.3C357.972 198.087 358.252 197.98 358.585 197.98C358.919 197.98 359.139 197.987 359.245 198C359.259 197.893 359.265 197.753 359.265 197.58C359.265 196.58 359.152 195.7 358.925 194.94ZM375.276 199.92L375.076 204.32C375.076 205.493 375.269 206.68 375.656 207.88C375.243 208.04 374.823 208.12 374.396 208.12C373.236 208.12 372.656 207.507 372.656 206.28C372.656 205.373 372.736 204.307 372.896 203.08C373.056 201.853 373.136 201.1 373.136 200.82C373.136 200.127 372.823 199.78 372.196 199.78C371.529 199.78 370.789 200.407 369.976 201.66C369.163 202.9 368.696 203.94 368.576 204.78C368.603 205.167 368.736 206.16 368.976 207.76C368.563 207.92 368.109 208 367.616 208C366.589 208 366.076 207.5 366.076 206.5C366.076 206.02 366.149 205.08 366.296 203.68C366.443 202.267 366.516 201.133 366.516 200.28C366.516 197.44 366.356 195.093 366.036 193.24C366.463 193.08 366.903 193 367.356 193C367.809 193 368.183 193.153 368.476 193.46C368.783 193.753 368.936 194.16 368.936 194.68C368.936 195.2 368.863 196.273 368.716 197.9C368.583 199.527 368.516 200.793 368.516 201.7C368.983 200.713 369.663 199.813 370.556 199C371.463 198.173 372.363 197.76 373.256 197.76C374.603 197.76 375.276 198.48 375.276 199.92ZM379.496 203.46C379.496 204.42 379.65 205.18 379.956 205.74C380.263 206.287 380.776 206.56 381.496 206.56C382.216 206.56 382.776 206.32 383.176 205.84C383.59 205.347 383.796 204.753 383.796 204.06C384.25 204.06 384.643 204.173 384.976 204.4C385.31 204.627 385.476 204.94 385.476 205.34C385.476 206.167 385.036 206.86 384.156 207.42C383.276 207.967 382.35 208.24 381.376 208.24C379.856 208.24 378.756 207.833 378.076 207.02C377.396 206.193 377.056 204.973 377.056 203.36C377.056 201.747 377.51 200.393 378.416 199.3C379.336 198.193 380.556 197.64 382.076 197.64C383.116 197.64 383.95 197.88 384.576 198.36C385.216 198.827 385.536 199.56 385.536 200.56C385.536 201.547 385.083 202.293 384.176 202.8C383.283 203.293 382.19 203.54 380.896 203.54C380.443 203.54 379.976 203.513 379.496 203.46ZM379.516 201.88C379.916 201.96 380.336 202 380.776 202C381.736 202 382.543 201.82 383.196 201.46C383.276 201.14 383.316 200.887 383.316 200.7C383.316 200.233 383.15 199.88 382.816 199.64C382.483 199.4 382.023 199.28 381.436 199.28C380.863 199.28 380.343 199.467 379.876 199.84C379.636 200.533 379.516 201.213 379.516 201.88ZM396.007 207.76C395.594 207.92 395.154 208 394.687 208C394.221 208 393.841 207.893 393.547 207.68C393.267 207.453 393.127 207.147 393.127 206.76C393.127 206.36 393.187 205.64 393.307 204.6C393.427 203.56 393.487 202.553 393.487 201.58C393.487 200.593 393.334 199.44 393.027 198.12C393.454 197.96 393.874 197.88 394.287 197.88C394.701 197.88 395.054 198.02 395.347 198.3C395.654 198.58 395.807 198.953 395.807 199.42C395.807 199.66 395.767 200.02 395.687 200.5C395.607 200.967 395.561 201.32 395.547 201.56C396.067 200.373 396.681 199.447 397.387 198.78C398.107 198.1 398.821 197.76 399.527 197.76C400.021 197.76 400.414 197.933 400.707 198.28C401.001 198.627 401.147 199.067 401.147 199.6C401.147 200.12 401.014 200.547 400.747 200.88C400.481 201.2 400.147 201.36 399.747 201.36C399.361 201.36 399.047 201.32 398.807 201.24C398.847 201.08 398.867 200.933 398.867 200.8C398.867 200.253 398.674 199.98 398.287 199.98C397.701 199.98 397.147 200.573 396.627 201.76C396.121 202.933 395.781 204.033 395.607 205.06C395.674 206.06 395.807 206.96 396.007 207.76ZM404.008 203.46C404.008 204.42 404.161 205.18 404.468 205.74C404.775 206.287 405.288 206.56 406.008 206.56C406.728 206.56 407.288 206.32 407.688 205.84C408.101 205.347 408.308 204.753 408.308 204.06C408.761 204.06 409.155 204.173 409.488 204.4C409.821 204.627 409.988 204.94 409.988 205.34C409.988 206.167 409.548 206.86 408.668 207.42C407.788 207.967 406.861 208.24 405.888 208.24C404.368 208.24 403.268 207.833 402.588 207.02C401.908 206.193 401.568 204.973 401.568 203.36C401.568 201.747 402.021 200.393 402.928 199.3C403.848 198.193 405.068 197.64 406.588 197.64C407.628 197.64 408.461 197.88 409.088 198.36C409.728 198.827 410.048 199.56 410.048 200.56C410.048 201.547 409.595 202.293 408.688 202.8C407.795 203.293 406.701 203.54 405.408 203.54C404.955 203.54 404.488 203.513 404.008 203.46ZM404.028 201.88C404.428 201.96 404.848 202 405.288 202C406.248 202 407.055 201.82 407.708 201.46C407.788 201.14 407.828 200.887 407.828 200.7C407.828 200.233 407.661 199.88 407.328 199.64C406.995 199.4 406.535 199.28 405.948 199.28C405.375 199.28 404.855 199.467 404.388 199.84C404.148 200.533 404.028 201.213 404.028 201.88ZM427.215 199.92L427.015 204.2C427.015 205.493 427.201 206.72 427.575 207.88C427.201 208.04 426.775 208.12 426.295 208.12C425.161 208.12 424.595 207.487 424.595 206.22C424.595 205.647 424.668 204.687 424.815 203.34C424.961 201.98 425.035 201.127 425.035 200.78C425.035 200.113 424.761 199.78 424.215 199.78C423.615 199.78 422.895 200.393 422.055 201.62C421.228 202.847 420.815 203.807 420.815 204.5C420.881 205.553 421.068 206.6 421.375 207.64C420.868 207.8 420.441 207.88 420.095 207.88C418.961 207.88 418.395 207.247 418.395 205.98C418.395 205.447 418.468 204.553 418.615 203.3C418.761 202.047 418.835 201.26 418.835 200.94C418.835 200.273 418.535 199.94 417.935 199.94C417.521 199.94 417.048 200.247 416.515 200.86C415.981 201.473 415.528 202.153 415.155 202.9C414.795 203.633 414.601 204.22 414.575 204.66C414.641 205.807 414.775 206.84 414.975 207.76C414.548 207.92 414.101 208 413.635 208C413.181 208 412.808 207.893 412.515 207.68C412.235 207.453 412.095 207.147 412.095 206.76C412.095 206.36 412.155 205.653 412.275 204.64C412.395 203.613 412.455 202.6 412.455 201.6C412.455 200.587 412.301 199.427 411.995 198.12C412.421 197.96 412.875 197.88 413.355 197.88C413.835 197.88 414.221 198.02 414.515 198.3C414.821 198.58 414.975 198.953 414.975 199.42C414.975 199.66 414.928 200.247 414.835 201.18C415.328 200.3 415.955 199.54 416.715 198.9C417.475 198.247 418.235 197.92 418.995 197.92C420.341 197.92 421.015 198.64 421.015 200.08C421.015 200.44 420.995 200.84 420.955 201.28C421.448 200.347 422.081 199.527 422.855 198.82C423.641 198.113 424.421 197.76 425.195 197.76C426.541 197.76 427.215 198.48 427.215 199.92ZM438.75 198.58C438.39 200.113 438.21 201.653 438.21 203.2C438.21 204.733 438.384 206.253 438.73 207.76C438.25 207.92 437.757 208 437.25 208C436.744 208 436.39 207.853 436.19 207.56C435.99 207.253 435.89 206.82 435.89 206.26C435.89 205.687 435.977 204.907 436.15 203.92C435.204 205.947 434.29 207.227 433.41 207.76C433.01 208 432.597 208.12 432.17 208.12C431.157 208.12 430.37 207.747 429.81 207C429.25 206.24 428.97 205.3 428.97 204.18C428.97 202.473 429.444 200.98 430.39 199.7C431.337 198.407 432.564 197.76 434.07 197.76C435.59 197.76 437.15 198.033 438.75 198.58ZM436.13 199.78C435.424 199.567 434.824 199.46 434.33 199.46C433.33 199.46 432.584 199.68 432.09 200.12C431.637 201.24 431.41 202.38 431.41 203.54C431.41 204.153 431.504 204.773 431.69 205.4C431.89 206.027 432.19 206.34 432.59 206.34C433.057 206.34 433.657 205.653 434.39 204.28C435.124 202.907 435.704 201.407 436.13 199.78ZM440.589 198.06C441.015 197.94 441.442 197.88 441.869 197.88C442.309 197.88 442.682 198.013 442.989 198.28C443.295 198.547 443.449 198.893 443.449 199.32C443.449 199.733 443.375 200.46 443.229 201.5C443.095 202.527 443.029 203.327 443.029 203.9C443.029 205.393 443.169 206.68 443.449 207.76C443.035 207.92 442.589 208 442.109 208C441.629 208 441.249 207.893 440.969 207.68C440.689 207.453 440.549 207.133 440.549 206.72C440.549 206.293 440.629 205.6 440.789 204.64C440.949 203.68 441.029 202.887 441.029 202.26C441.029 200.593 440.882 199.193 440.589 198.06ZM440.849 193.54C441.315 193.327 441.775 193.22 442.229 193.22C442.682 193.22 443.015 193.34 443.229 193.58C443.455 193.807 443.569 194.147 443.569 194.6C443.569 195.053 443.415 195.453 443.109 195.8C442.815 196.147 442.429 196.32 441.949 196.32C440.962 196.32 440.469 195.807 440.469 194.78C440.469 194.327 440.595 193.913 440.849 193.54ZM454.926 199.92L454.726 204.32C454.726 205.533 454.913 206.72 455.286 207.88C454.913 208.04 454.486 208.12 454.006 208.12C452.873 208.12 452.306 207.487 452.306 206.22C452.306 205.647 452.38 204.687 452.526 203.34C452.673 201.98 452.746 201.127 452.746 200.78C452.746 200.113 452.446 199.78 451.846 199.78C451.406 199.78 450.906 200.1 450.346 200.74C449.8 201.367 449.326 202.073 448.926 202.86C448.54 203.633 448.313 204.273 448.246 204.78C448.3 205.82 448.433 206.813 448.646 207.76C448.22 207.92 447.773 208 447.306 208C446.853 208 446.48 207.893 446.186 207.68C445.906 207.453 445.766 207.147 445.766 206.76C445.766 206.36 445.826 205.653 445.946 204.64C446.066 203.613 446.126 202.6 446.126 201.6C446.126 200.587 445.973 199.427 445.666 198.12C446.093 197.96 446.546 197.88 447.026 197.88C447.506 197.88 447.893 198.02 448.186 198.3C448.493 198.58 448.646 198.927 448.646 199.34C448.646 199.753 448.593 200.413 448.486 201.32C448.993 200.373 449.653 199.547 450.466 198.84C451.28 198.12 452.093 197.76 452.906 197.76C454.253 197.76 454.926 198.48 454.926 199.92ZM457.405 198.06C457.832 197.94 458.258 197.88 458.685 197.88C459.125 197.88 459.498 198.013 459.805 198.28C460.112 198.547 460.265 198.893 460.265 199.32C460.265 199.733 460.192 200.46 460.045 201.5C459.912 202.527 459.845 203.327 459.845 203.9C459.845 205.393 459.985 206.68 460.265 207.76C459.852 207.92 459.405 208 458.925 208C458.445 208 458.065 207.893 457.785 207.68C457.505 207.453 457.365 207.133 457.365 206.72C457.365 206.293 457.445 205.6 457.605 204.64C457.765 203.68 457.845 202.887 457.845 202.26C457.845 200.593 457.698 199.193 457.405 198.06ZM457.665 193.54C458.132 193.327 458.592 193.22 459.045 193.22C459.498 193.22 459.832 193.34 460.045 193.58C460.272 193.807 460.385 194.147 460.385 194.6C460.385 195.053 460.232 195.453 459.925 195.8C459.632 196.147 459.245 196.32 458.765 196.32C457.778 196.32 457.285 195.807 457.285 194.78C457.285 194.327 457.412 193.913 457.665 193.54ZM471.743 199.92L471.543 204.32C471.543 205.533 471.729 206.72 472.103 207.88C471.729 208.04 471.303 208.12 470.823 208.12C469.689 208.12 469.123 207.487 469.123 206.22C469.123 205.647 469.196 204.687 469.343 203.34C469.489 201.98 469.563 201.127 469.563 200.78C469.563 200.113 469.263 199.78 468.663 199.78C468.223 199.78 467.723 200.1 467.163 200.74C466.616 201.367 466.143 202.073 465.743 202.86C465.356 203.633 465.129 204.273 465.063 204.78C465.116 205.82 465.249 206.813 465.463 207.76C465.036 207.92 464.589 208 464.123 208C463.669 208 463.296 207.893 463.003 207.68C462.723 207.453 462.583 207.147 462.583 206.76C462.583 206.36 462.643 205.653 462.763 204.64C462.883 203.613 462.943 202.6 462.943 201.6C462.943 200.587 462.789 199.427 462.483 198.12C462.909 197.96 463.363 197.88 463.843 197.88C464.323 197.88 464.709 198.02 465.003 198.3C465.309 198.58 465.463 198.927 465.463 199.34C465.463 199.753 465.409 200.413 465.303 201.32C465.809 200.373 466.469 199.547 467.283 198.84C468.096 198.12 468.909 197.76 469.723 197.76C471.069 197.76 471.743 198.48 471.743 199.92ZM480.942 199.78C480.235 199.567 479.535 199.46 478.842 199.46C478.148 199.46 477.495 199.667 476.882 200.08C476.402 201.04 476.162 202.06 476.162 203.14C476.162 203.767 476.248 204.38 476.422 204.98C476.595 205.567 476.882 205.86 477.282 205.86C477.735 205.86 478.342 205.213 479.102 203.92C479.862 202.627 480.475 201.247 480.942 199.78ZM477.942 211.28C478.795 211.28 479.462 210.987 479.942 210.4C480.422 209.813 480.662 209.06 480.662 208.14C480.662 207.687 480.628 207.027 480.562 206.16C480.508 205.293 480.475 204.68 480.462 204.32C479.515 205.973 478.688 206.987 477.982 207.36C477.622 207.547 477.242 207.64 476.842 207.64C475.842 207.64 475.068 207.247 474.522 206.46C473.975 205.673 473.702 204.713 473.702 203.58C473.702 202.033 474.182 200.68 475.142 199.52C476.115 198.347 477.342 197.76 478.822 197.76C480.315 197.76 481.822 198.02 483.342 198.54C482.942 199.967 482.742 201.367 482.742 202.74C482.742 203.393 482.788 204.207 482.882 205.18C482.975 206.14 483.022 206.853 483.022 207.32C483.022 208.96 482.502 210.313 481.462 211.38C480.422 212.46 479.088 213 477.462 213C476.502 213 475.675 212.813 474.982 212.44C474.302 212.08 473.962 211.513 473.962 210.74C473.962 210.26 474.142 209.853 474.502 209.52C474.862 209.187 475.288 209.02 475.782 209.02C475.888 209.02 476.022 209.033 476.182 209.06C476.142 209.233 476.122 209.387 476.122 209.52C476.122 210 476.302 210.413 476.662 210.76C477.022 211.107 477.448 211.28 477.942 211.28ZM494.801 208.24C493.375 208.24 492.281 207.86 491.521 207.1C490.761 206.34 490.381 205.247 490.381 203.82C490.381 202.087 490.868 200.627 491.841 199.44C492.815 198.24 494.108 197.64 495.721 197.64C496.641 197.64 497.388 197.827 497.961 198.2C498.535 198.56 498.821 199.1 498.821 199.82C498.821 200.287 498.635 200.707 498.261 201.08C497.888 201.44 497.468 201.62 497.001 201.62C496.895 201.62 496.761 201.607 496.601 201.58C496.641 201.407 496.661 201.253 496.661 201.12C496.661 200.64 496.535 200.233 496.281 199.9C496.028 199.567 495.608 199.4 495.021 199.4C494.435 199.4 493.888 199.64 493.381 200.12C493.021 201.053 492.841 202.22 492.841 203.62C492.841 205.527 493.561 206.48 495.001 206.48C495.775 206.48 496.348 206.233 496.721 205.74C497.108 205.233 497.301 204.667 497.301 204.04C497.755 204.04 498.148 204.153 498.481 204.38C498.815 204.607 498.981 204.92 498.981 205.32C498.981 206.187 498.535 206.893 497.641 207.44C496.761 207.973 495.815 208.24 494.801 208.24ZM509.883 198.58C509.523 200.113 509.343 201.653 509.343 203.2C509.343 204.733 509.516 206.253 509.863 207.76C509.383 207.92 508.89 208 508.383 208C507.876 208 507.523 207.853 507.323 207.56C507.123 207.253 507.023 206.82 507.023 206.26C507.023 205.687 507.11 204.907 507.283 203.92C506.336 205.947 505.423 207.227 504.543 207.76C504.143 208 503.73 208.12 503.303 208.12C502.29 208.12 501.503 207.747 500.943 207C500.383 206.24 500.103 205.3 500.103 204.18C500.103 202.473 500.576 200.98 501.523 199.7C502.47 198.407 503.696 197.76 505.203 197.76C506.723 197.76 508.283 198.033 509.883 198.58ZM507.263 199.78C506.556 199.567 505.956 199.46 505.463 199.46C504.463 199.46 503.716 199.68 503.223 200.12C502.77 201.24 502.543 202.38 502.543 203.54C502.543 204.153 502.636 204.773 502.823 205.4C503.023 206.027 503.323 206.34 503.723 206.34C504.19 206.34 504.79 205.653 505.523 204.28C506.256 202.907 506.836 201.407 507.263 199.78ZM514.582 207.76C514.168 207.92 513.728 208 513.262 208C512.795 208 512.415 207.893 512.122 207.68C511.842 207.453 511.702 207.147 511.702 206.76C511.702 206.36 511.762 205.64 511.882 204.6C512.002 203.56 512.062 202.553 512.062 201.58C512.062 200.593 511.908 199.44 511.602 198.12C512.028 197.96 512.448 197.88 512.862 197.88C513.275 197.88 513.628 198.02 513.922 198.3C514.228 198.58 514.382 198.953 514.382 199.42C514.382 199.66 514.342 200.02 514.262 200.5C514.182 200.967 514.135 201.32 514.122 201.56C514.642 200.373 515.255 199.447 515.962 198.78C516.682 198.1 517.395 197.76 518.102 197.76C518.595 197.76 518.988 197.933 519.282 198.28C519.575 198.627 519.722 199.067 519.722 199.6C519.722 200.12 519.588 200.547 519.322 200.88C519.055 201.2 518.722 201.36 518.322 201.36C517.935 201.36 517.622 201.32 517.382 201.24C517.422 201.08 517.442 200.933 517.442 200.8C517.442 200.253 517.248 199.98 516.862 199.98C516.275 199.98 515.722 200.573 515.202 201.76C514.695 202.933 514.355 204.033 514.182 205.06C514.248 206.06 514.382 206.96 514.582 207.76ZM527.122 193.24C527.549 193.08 527.989 193 528.442 193C528.896 193 529.269 193.153 529.562 193.46C529.856 193.753 530.002 194.127 530.002 194.58C530.002 195.02 529.936 196.073 529.802 197.74C529.669 199.393 529.602 201.027 529.602 202.64C529.602 204.24 529.762 205.947 530.082 207.76C529.602 207.92 529.102 208 528.582 208C527.702 208 527.262 207.38 527.262 206.14C527.262 205.727 527.349 204.987 527.522 203.92C526.962 205.107 526.462 205.987 526.022 206.56C525.596 207.133 525.176 207.54 524.762 207.78C524.362 208.007 523.936 208.12 523.482 208.12C522.469 208.12 521.689 207.747 521.142 207C520.609 206.253 520.342 205.333 520.342 204.24C520.342 203.147 520.536 202.12 520.922 201.16C521.322 200.187 521.916 199.38 522.702 198.74C523.502 198.087 524.349 197.76 525.242 197.76C526.136 197.76 526.909 197.88 527.562 198.12C527.536 196.4 527.389 194.773 527.122 193.24ZM527.562 199.82C526.909 199.58 526.202 199.46 525.442 199.46C524.682 199.46 524.029 199.68 523.482 200.12C523.029 201.2 522.802 202.407 522.802 203.74C522.802 204.353 522.889 204.94 523.062 205.5C523.236 206.06 523.522 206.34 523.922 206.34C524.536 206.34 525.229 205.653 526.002 204.28C526.789 202.907 527.309 201.42 527.562 199.82Z" fill="black"/>
<path d="M591.221 212.58C590.861 214.113 590.681 215.653 590.681 217.2C590.681 218.733 590.854 220.253 591.201 221.76C590.721 221.92 590.228 222 589.721 222C589.214 222 588.861 221.853 588.661 221.56C588.461 221.253 588.361 220.82 588.361 220.26C588.361 219.687 588.448 218.907 588.621 217.92C587.674 219.947 586.761 221.227 585.881 221.76C585.481 222 585.068 222.12 584.641 222.12C583.628 222.12 582.841 221.747 582.281 221C581.721 220.24 581.441 219.3 581.441 218.18C581.441 216.473 581.914 214.98 582.861 213.7C583.808 212.407 585.034 211.76 586.541 211.76C588.061 211.76 589.621 212.033 591.221 212.58ZM588.601 213.78C587.894 213.567 587.294 213.46 586.801 213.46C585.801 213.46 585.054 213.68 584.561 214.12C584.108 215.24 583.881 216.38 583.881 217.54C583.881 218.153 583.974 218.773 584.161 219.4C584.361 220.027 584.661 220.34 585.061 220.34C585.528 220.34 586.128 219.653 586.861 218.28C587.594 216.907 588.174 215.407 588.601 213.78ZM596.959 222.24C595.533 222.24 594.439 221.86 593.679 221.1C592.919 220.34 592.539 219.247 592.539 217.82C592.539 216.087 593.026 214.627 593.999 213.44C594.973 212.24 596.266 211.64 597.879 211.64C598.799 211.64 599.546 211.827 600.119 212.2C600.693 212.56 600.979 213.1 600.979 213.82C600.979 214.287 600.793 214.707 600.419 215.08C600.046 215.44 599.626 215.62 599.159 215.62C599.053 215.62 598.919 215.607 598.759 215.58C598.799 215.407 598.819 215.253 598.819 215.12C598.819 214.64 598.693 214.233 598.439 213.9C598.186 213.567 597.766 213.4 597.179 213.4C596.593 213.4 596.046 213.64 595.539 214.12C595.179 215.053 594.999 216.22 594.999 217.62C594.999 219.527 595.719 220.48 597.159 220.48C597.933 220.48 598.506 220.233 598.879 219.74C599.266 219.233 599.459 218.667 599.459 218.04C599.913 218.04 600.306 218.153 600.639 218.38C600.973 218.607 601.139 218.92 601.139 219.32C601.139 220.187 600.693 220.893 599.799 221.44C598.919 221.973 597.973 222.24 596.959 222.24ZM603.681 208.94C604.108 208.727 604.541 208.62 604.981 208.62C605.421 208.62 605.775 208.76 606.041 209.04C606.321 209.32 606.461 209.733 606.461 210.28C606.461 210.827 606.428 211.447 606.361 212.14C607.361 212.14 608.315 212 609.221 211.72C609.381 211.987 609.461 212.3 609.461 212.66C609.461 213.007 609.301 213.293 608.981 213.52C608.675 213.733 608.361 213.84 608.041 213.84C607.721 213.84 607.361 213.8 606.961 213.72C606.561 213.64 606.301 213.593 606.181 213.58C606.168 213.7 606.128 213.94 606.061 214.3C606.008 214.66 605.961 214.973 605.921 215.24C605.815 215.973 605.761 216.76 605.761 217.6C605.761 219.427 606.355 220.34 607.541 220.34C607.981 220.34 608.488 220.187 609.061 219.88C609.235 220.133 609.321 220.46 609.321 220.86C609.321 221.26 609.101 221.573 608.661 221.8C608.235 222.013 607.721 222.12 607.121 222.12C604.775 222.12 603.601 220.787 603.601 218.12C603.601 217.733 603.655 217.033 603.761 216.02C603.881 215.007 603.941 214.187 603.941 213.56C603.301 213.6 602.788 213.713 602.401 213.9C602.241 213.66 602.161 213.387 602.161 213.08C602.161 212.76 602.275 212.5 602.501 212.3C602.728 212.087 603.008 211.98 603.341 211.98C603.675 211.98 603.895 211.987 604.001 212C604.015 211.893 604.021 211.753 604.021 211.58C604.021 210.58 603.908 209.7 603.681 208.94ZM610.872 212.06C611.299 211.94 611.725 211.88 612.152 211.88C612.592 211.88 612.965 212.013 613.272 212.28C613.579 212.547 613.732 212.893 613.732 213.32C613.732 213.733 613.659 214.46 613.512 215.5C613.379 216.527 613.312 217.327 613.312 217.9C613.312 219.393 613.452 220.68 613.732 221.76C613.319 221.92 612.872 222 612.392 222C611.912 222 611.532 221.893 611.252 221.68C610.972 221.453 610.832 221.133 610.832 220.72C610.832 220.293 610.912 219.6 611.072 218.64C611.232 217.68 611.312 216.887 611.312 216.26C611.312 214.593 611.165 213.193 610.872 212.06ZM611.132 207.54C611.599 207.327 612.059 207.22 612.512 207.22C612.965 207.22 613.299 207.34 613.512 207.58C613.739 207.807 613.852 208.147 613.852 208.6C613.852 209.053 613.699 209.453 613.392 209.8C613.099 210.147 612.712 210.32 612.232 210.32C611.245 210.32 610.752 209.807 610.752 208.78C610.752 208.327 610.879 207.913 611.132 207.54ZM623.71 218.84C623.243 219.747 622.656 220.52 621.95 221.16C621.243 221.8 620.536 222.12 619.83 222.12C619.123 222.12 618.576 221.88 618.19 221.4C617.816 220.907 617.55 220.28 617.39 219.52C617.23 218.747 617.083 217.953 616.95 217.14C616.83 216.327 616.616 215.533 616.31 214.76C616.003 213.987 615.583 213.407 615.05 213.02C615.223 212.7 615.483 212.433 615.83 212.22C616.176 211.993 616.55 211.88 616.95 211.88C617.576 211.88 618.083 212.287 618.47 213.1C618.856 213.9 619.103 214.787 619.21 215.76C619.33 216.733 619.456 217.68 619.59 218.6C619.736 219.507 619.903 220.027 620.09 220.16C620.543 220.133 620.936 219.847 621.27 219.3C621.616 218.74 621.87 218.067 622.03 217.28C622.323 215.84 622.47 214.713 622.47 213.9C622.47 213.087 622.43 212.46 622.35 212.02C622.816 211.927 623.216 211.88 623.55 211.88C624.696 211.88 625.27 212.427 625.27 213.52C625.27 214.213 625.123 215.047 624.83 216.02C624.55 216.98 624.176 217.92 623.71 218.84ZM628.315 217.46C628.315 218.42 628.468 219.18 628.775 219.74C629.081 220.287 629.595 220.56 630.315 220.56C631.035 220.56 631.595 220.32 631.995 219.84C632.408 219.347 632.615 218.753 632.615 218.06C633.068 218.06 633.461 218.173 633.795 218.4C634.128 218.627 634.295 218.94 634.295 219.34C634.295 220.167 633.855 220.86 632.975 221.42C632.095 221.967 631.168 222.24 630.195 222.24C628.675 222.24 627.575 221.833 626.895 221.02C626.215 220.193 625.875 218.973 625.875 217.36C625.875 215.747 626.328 214.393 627.235 213.3C628.155 212.193 629.375 211.64 630.895 211.64C631.935 211.64 632.768 211.88 633.395 212.36C634.035 212.827 634.355 213.56 634.355 214.56C634.355 215.547 633.901 216.293 632.995 216.8C632.101 217.293 631.008 217.54 629.715 217.54C629.261 217.54 628.795 217.513 628.315 217.46ZM628.335 215.88C628.735 215.96 629.155 216 629.595 216C630.555 216 631.361 215.82 632.015 215.46C632.095 215.14 632.135 214.887 632.135 214.7C632.135 214.233 631.968 213.88 631.635 213.64C631.301 213.4 630.841 213.28 630.255 213.28C629.681 213.28 629.161 213.467 628.695 213.84C628.455 214.533 628.335 215.213 628.335 215.88ZM645.866 222.24C644.439 222.24 643.346 221.86 642.586 221.1C641.826 220.34 641.446 219.247 641.446 217.82C641.446 216.087 641.932 214.627 642.906 213.44C643.879 212.24 645.172 211.64 646.786 211.64C647.706 211.64 648.452 211.827 649.026 212.2C649.599 212.56 649.886 213.1 649.886 213.82C649.886 214.287 649.699 214.707 649.326 215.08C648.952 215.44 648.532 215.62 648.066 215.62C647.959 215.62 647.826 215.607 647.666 215.58C647.706 215.407 647.726 215.253 647.726 215.12C647.726 214.64 647.599 214.233 647.346 213.9C647.092 213.567 646.672 213.4 646.086 213.4C645.499 213.4 644.952 213.64 644.446 214.12C644.086 215.053 643.906 216.22 643.906 217.62C643.906 219.527 644.626 220.48 646.066 220.48C646.839 220.48 647.412 220.233 647.786 219.74C648.172 219.233 648.366 218.667 648.366 218.04C648.819 218.04 649.212 218.153 649.546 218.38C649.879 218.607 650.046 218.92 650.046 219.32C650.046 220.187 649.599 220.893 648.706 221.44C647.826 221.973 646.879 222.24 645.866 222.24ZM660.948 212.58C660.588 214.113 660.408 215.653 660.408 217.2C660.408 218.733 660.581 220.253 660.928 221.76C660.448 221.92 659.954 222 659.448 222C658.941 222 658.588 221.853 658.388 221.56C658.188 221.253 658.088 220.82 658.088 220.26C658.088 219.687 658.174 218.907 658.348 217.92C657.401 219.947 656.488 221.227 655.608 221.76C655.208 222 654.794 222.12 654.368 222.12C653.354 222.12 652.568 221.747 652.008 221C651.448 220.24 651.168 219.3 651.168 218.18C651.168 216.473 651.641 214.98 652.588 213.7C653.534 212.407 654.761 211.76 656.268 211.76C657.788 211.76 659.348 212.033 660.948 212.58ZM658.328 213.78C657.621 213.567 657.021 213.46 656.528 213.46C655.528 213.46 654.781 213.68 654.288 214.12C653.834 215.24 653.608 216.38 653.608 217.54C653.608 218.153 653.701 218.773 653.888 219.4C654.088 220.027 654.388 220.34 654.788 220.34C655.254 220.34 655.854 219.653 656.588 218.28C657.321 216.907 657.901 215.407 658.328 213.78ZM665.646 221.76C665.233 221.92 664.793 222 664.326 222C663.859 222 663.479 221.893 663.186 221.68C662.906 221.453 662.766 221.147 662.766 220.76C662.766 220.36 662.826 219.64 662.946 218.6C663.066 217.56 663.126 216.553 663.126 215.58C663.126 214.593 662.973 213.44 662.666 212.12C663.093 211.96 663.513 211.88 663.926 211.88C664.339 211.88 664.693 212.02 664.986 212.3C665.293 212.58 665.446 212.953 665.446 213.42C665.446 213.66 665.406 214.02 665.326 214.5C665.246 214.967 665.199 215.32 665.186 215.56C665.706 214.373 666.319 213.447 667.026 212.78C667.746 212.1 668.459 211.76 669.166 211.76C669.659 211.76 670.053 211.933 670.346 212.28C670.639 212.627 670.786 213.067 670.786 213.6C670.786 214.12 670.653 214.547 670.386 214.88C670.119 215.2 669.786 215.36 669.386 215.36C668.999 215.36 668.686 215.32 668.446 215.24C668.486 215.08 668.506 214.933 668.506 214.8C668.506 214.253 668.313 213.98 667.926 213.98C667.339 213.98 666.786 214.573 666.266 215.76C665.759 216.933 665.419 218.033 665.246 219.06C665.313 220.06 665.446 220.96 665.646 221.76ZM678.187 207.24C678.613 207.08 679.053 207 679.507 207C679.96 207 680.333 207.153 680.627 207.46C680.92 207.753 681.067 208.127 681.067 208.58C681.067 209.02 681 210.073 680.867 211.74C680.733 213.393 680.667 215.027 680.667 216.64C680.667 218.24 680.827 219.947 681.147 221.76C680.667 221.92 680.167 222 679.647 222C678.767 222 678.327 221.38 678.327 220.14C678.327 219.727 678.413 218.987 678.587 217.92C678.027 219.107 677.527 219.987 677.087 220.56C676.66 221.133 676.24 221.54 675.827 221.78C675.427 222.007 675 222.12 674.547 222.12C673.533 222.12 672.753 221.747 672.207 221C671.673 220.253 671.407 219.333 671.407 218.24C671.407 217.147 671.6 216.12 671.987 215.16C672.387 214.187 672.98 213.38 673.767 212.74C674.567 212.087 675.413 211.76 676.307 211.76C677.2 211.76 677.973 211.88 678.627 212.12C678.6 210.4 678.453 208.773 678.187 207.24ZM678.627 213.82C677.973 213.58 677.267 213.46 676.507 213.46C675.747 213.46 675.093 213.68 674.547 214.12C674.093 215.2 673.867 216.407 673.867 217.74C673.867 218.353 673.953 218.94 674.127 219.5C674.3 220.06 674.587 220.34 674.987 220.34C675.6 220.34 676.293 219.653 677.067 218.28C677.853 216.907 678.373 215.42 678.627 213.82Z" fill="black"/>
<path d="M350.753 240.2C351.353 241.467 352.113 242.573 353.033 243.52C353.953 244.467 354.866 245.08 355.773 245.36C355.773 245.92 355.626 246.353 355.333 246.66C355.04 246.967 354.62 247.12 354.073 247.12C353.366 247.12 352.56 246.667 351.653 245.76C350.746 244.84 349.953 243.76 349.273 242.52C348.606 241.267 348.213 240.167 348.093 239.22C349.053 239.22 349.84 238.967 350.453 238.46C351.08 237.94 351.393 237.207 351.393 236.26C351.393 235.06 350.646 234.46 349.153 234.46C348.673 234.46 348.086 234.54 347.393 234.7C347.3 236.5 347.253 237.953 347.253 239.06C347.253 242.607 347.393 245.173 347.673 246.76C347.246 246.92 346.793 247 346.313 247C345.833 247 345.413 246.847 345.053 246.54C344.706 246.233 344.533 245.827 344.533 245.32C344.533 244.813 344.6 243.933 344.733 242.68C344.866 241.413 344.933 240.4 344.933 239.64C344.933 237.307 344.766 235.233 344.433 233.42C346.233 232.927 347.946 232.68 349.573 232.68C352.546 232.68 354.033 233.74 354.033 235.86C354.033 236.793 353.713 237.673 353.073 238.5C352.446 239.313 351.673 239.88 350.753 240.2ZM364.327 240.92C364.487 241.2 364.567 241.527 364.567 241.9C364.567 242.26 364.413 242.56 364.107 242.8C363.813 243.027 363.487 243.14 363.127 243.14C362.78 243.14 362.147 243.087 361.227 242.98C360.32 242.873 359.533 242.82 358.867 242.82C358.213 242.82 357.693 242.927 357.307 243.14C357.147 242.86 357.067 242.54 357.067 242.18C357.067 241.807 357.213 241.507 357.507 241.28C357.813 241.04 358.14 240.92 358.487 240.92C358.847 240.92 359.48 240.973 360.387 241.08C361.307 241.187 362.093 241.24 362.747 241.24C363.413 241.24 363.94 241.133 364.327 240.92ZM370.694 247.24C369.267 247.24 368.174 246.86 367.414 246.1C366.654 245.34 366.274 244.247 366.274 242.82C366.274 241.087 366.76 239.627 367.734 238.44C368.707 237.24 370 236.64 371.614 236.64C372.534 236.64 373.28 236.827 373.854 237.2C374.427 237.56 374.714 238.1 374.714 238.82C374.714 239.287 374.527 239.707 374.154 240.08C373.78 240.44 373.36 240.62 372.894 240.62C372.787 240.62 372.654 240.607 372.494 240.58C372.534 240.407 372.554 240.253 372.554 240.12C372.554 239.64 372.427 239.233 372.174 238.9C371.92 238.567 371.5 238.4 370.914 238.4C370.327 238.4 369.78 238.64 369.274 239.12C368.914 240.053 368.734 241.22 368.734 242.62C368.734 244.527 369.454 245.48 370.894 245.48C371.667 245.48 372.24 245.233 372.614 244.74C373 244.233 373.194 243.667 373.194 243.04C373.647 243.04 374.04 243.153 374.374 243.38C374.707 243.607 374.874 243.92 374.874 244.32C374.874 245.187 374.427 245.893 373.534 246.44C372.654 246.973 371.707 247.24 370.694 247.24ZM385.776 237.58C385.416 239.113 385.236 240.653 385.236 242.2C385.236 243.733 385.409 245.253 385.756 246.76C385.276 246.92 384.782 247 384.276 247C383.769 247 383.416 246.853 383.216 246.56C383.016 246.253 382.916 245.82 382.916 245.26C382.916 244.687 383.002 243.907 383.176 242.92C382.229 244.947 381.316 246.227 380.436 246.76C380.036 247 379.622 247.12 379.196 247.12C378.182 247.12 377.396 246.747 376.836 246C376.276 245.24 375.996 244.3 375.996 243.18C375.996 241.473 376.469 239.98 377.416 238.7C378.362 237.407 379.589 236.76 381.096 236.76C382.616 236.76 384.176 237.033 385.776 237.58ZM383.156 238.78C382.449 238.567 381.849 238.46 381.356 238.46C380.356 238.46 379.609 238.68 379.116 239.12C378.662 240.24 378.436 241.38 378.436 242.54C378.436 243.153 378.529 243.773 378.716 244.4C378.916 245.027 379.216 245.34 379.616 245.34C380.082 245.34 380.682 244.653 381.416 243.28C382.149 241.907 382.729 240.407 383.156 238.78ZM390.474 246.76C390.061 246.92 389.621 247 389.154 247C388.687 247 388.307 246.893 388.014 246.68C387.734 246.453 387.594 246.147 387.594 245.76C387.594 245.36 387.654 244.64 387.774 243.6C387.894 242.56 387.954 241.553 387.954 240.58C387.954 239.593 387.801 238.44 387.494 237.12C387.921 236.96 388.341 236.88 388.754 236.88C389.167 236.88 389.521 237.02 389.814 237.3C390.121 237.58 390.274 237.953 390.274 238.42C390.274 238.66 390.234 239.02 390.154 239.5C390.074 239.967 390.027 240.32 390.014 240.56C390.534 239.373 391.147 238.447 391.854 237.78C392.574 237.1 393.287 236.76 393.994 236.76C394.487 236.76 394.881 236.933 395.174 237.28C395.467 237.627 395.614 238.067 395.614 238.6C395.614 239.12 395.481 239.547 395.214 239.88C394.947 240.2 394.614 240.36 394.214 240.36C393.827 240.36 393.514 240.32 393.274 240.24C393.314 240.08 393.334 239.933 393.334 239.8C393.334 239.253 393.141 238.98 392.754 238.98C392.167 238.98 391.614 239.573 391.094 240.76C390.587 241.933 390.247 243.033 390.074 244.06C390.141 245.06 390.274 245.96 390.474 246.76ZM403.015 232.24C403.441 232.08 403.881 232 404.335 232C404.788 232 405.161 232.153 405.455 232.46C405.748 232.753 405.895 233.127 405.895 233.58C405.895 234.02 405.828 235.073 405.695 236.74C405.561 238.393 405.495 240.027 405.495 241.64C405.495 243.24 405.655 244.947 405.975 246.76C405.495 246.92 404.995 247 404.475 247C403.595 247 403.155 246.38 403.155 245.14C403.155 244.727 403.241 243.987 403.415 242.92C402.855 244.107 402.355 244.987 401.915 245.56C401.488 246.133 401.068 246.54 400.655 246.78C400.255 247.007 399.828 247.12 399.375 247.12C398.361 247.12 397.581 246.747 397.035 246C396.501 245.253 396.235 244.333 396.235 243.24C396.235 242.147 396.428 241.12 396.815 240.16C397.215 239.187 397.808 238.38 398.595 237.74C399.395 237.087 400.241 236.76 401.135 236.76C402.028 236.76 402.801 236.88 403.455 237.12C403.428 235.4 403.281 233.773 403.015 232.24ZM403.455 238.82C402.801 238.58 402.095 238.46 401.335 238.46C400.575 238.46 399.921 238.68 399.375 239.12C398.921 240.2 398.695 241.407 398.695 242.74C398.695 243.353 398.781 243.94 398.955 244.5C399.128 245.06 399.415 245.34 399.815 245.34C400.428 245.34 401.121 244.653 401.895 243.28C402.681 241.907 403.201 240.42 403.455 238.82Z" fill="black"/>
<path d="M554.918 241.96C555.478 241.773 555.984 241.68 556.438 241.68C557.131 241.68 557.671 241.927 558.058 242.42C558.444 242.9 558.744 243.587 558.958 244.48C559.024 244.747 559.158 245.333 559.358 246.24C559.571 247.147 559.744 247.88 559.878 248.44C560.291 250.187 560.664 251.54 560.997 252.5C561.344 253.46 561.891 254.227 562.638 254.8C562.478 255.2 562.211 255.52 561.838 255.76C561.478 256 561.084 256.12 560.658 256.12C559.684 256.12 558.971 255.387 558.518 253.92C558.304 253.24 558.111 252.573 557.938 251.92C557.471 252.08 556.891 252.16 556.198 252.16C555.518 252.16 554.678 252.087 553.678 251.94C553.264 253.553 553.058 254.767 553.058 255.58C553.058 255.753 553.064 255.88 553.077 255.96C552.904 255.987 552.611 256 552.198 256C551.784 256 551.418 255.873 551.097 255.62C550.791 255.353 550.638 254.98 550.638 254.5C550.638 253.833 551.278 251.88 552.558 248.64C553.838 245.4 554.624 243.173 554.918 241.96ZM554.138 250.26C554.671 250.327 555.211 250.36 555.758 250.36C556.318 250.36 556.911 250.3 557.538 250.18C557.418 249.633 557.011 247.54 556.317 243.9C555.491 246.047 554.764 248.167 554.138 250.26ZM571.102 249.92C571.262 250.2 571.342 250.527 571.342 250.9C571.342 251.26 571.189 251.56 570.882 251.8C570.589 252.027 570.262 252.14 569.902 252.14C569.556 252.14 568.922 252.087 568.002 251.98C567.096 251.873 566.309 251.82 565.642 251.82C564.989 251.82 564.469 251.927 564.082 252.14C563.922 251.86 563.842 251.54 563.842 251.18C563.842 250.807 563.989 250.507 564.282 250.28C564.589 250.04 564.916 249.92 565.262 249.92C565.622 249.92 566.256 249.973 567.162 250.08C568.082 250.187 568.869 250.24 569.522 250.24C570.189 250.24 570.716 250.133 571.102 249.92ZM577.469 256.24C576.043 256.24 574.949 255.86 574.189 255.1C573.429 254.34 573.049 253.247 573.049 251.82C573.049 250.087 573.536 248.627 574.509 247.44C575.483 246.24 576.776 245.64 578.389 245.64C579.309 245.64 580.056 245.827 580.629 246.2C581.203 246.56 581.489 247.1 581.489 247.82C581.489 248.287 581.303 248.707 580.929 249.08C580.556 249.44 580.136 249.62 579.669 249.62C579.563 249.62 579.429 249.607 579.269 249.58C579.309 249.407 579.329 249.253 579.329 249.12C579.329 248.64 579.203 248.233 578.949 247.9C578.696 247.567 578.276 247.4 577.689 247.4C577.103 247.4 576.556 247.64 576.049 248.12C575.689 249.053 575.509 250.22 575.509 251.62C575.509 253.527 576.229 254.48 577.669 254.48C578.443 254.48 579.016 254.233 579.389 253.74C579.776 253.233 579.969 252.667 579.969 252.04C580.423 252.04 580.816 252.153 581.149 252.38C581.483 252.607 581.649 252.92 581.649 253.32C581.649 254.187 581.203 254.893 580.309 255.44C579.429 255.973 578.483 256.24 577.469 256.24ZM592.551 246.58C592.191 248.113 592.011 249.653 592.011 251.2C592.011 252.733 592.184 254.253 592.531 255.76C592.051 255.92 591.558 256 591.051 256C590.544 256 590.191 255.853 589.991 255.56C589.791 255.253 589.691 254.82 589.691 254.26C589.691 253.687 589.778 252.907 589.951 251.92C589.004 253.947 588.091 255.227 587.211 255.76C586.811 256 586.398 256.12 585.971 256.12C584.958 256.12 584.171 255.747 583.611 255C583.051 254.24 582.771 253.3 582.771 252.18C582.771 250.473 583.244 248.98 584.191 247.7C585.138 246.407 586.364 245.76 587.871 245.76C589.391 245.76 590.951 246.033 592.551 246.58ZM589.931 247.78C589.224 247.567 588.624 247.46 588.131 247.46C587.131 247.46 586.384 247.68 585.891 248.12C585.438 249.24 585.211 250.38 585.211 251.54C585.211 252.153 585.304 252.773 585.491 253.4C585.691 254.027 585.991 254.34 586.391 254.34C586.858 254.34 587.458 253.653 588.191 252.28C588.924 250.907 589.504 249.407 589.931 247.78ZM597.25 255.76C596.836 255.92 596.396 256 595.93 256C595.463 256 595.083 255.893 594.79 255.68C594.51 255.453 594.37 255.147 594.37 254.76C594.37 254.36 594.43 253.64 594.55 252.6C594.67 251.56 594.73 250.553 594.73 249.58C594.73 248.593 594.576 247.44 594.27 246.12C594.696 245.96 595.116 245.88 595.53 245.88C595.943 245.88 596.296 246.02 596.59 246.3C596.896 246.58 597.05 246.953 597.05 247.42C597.05 247.66 597.01 248.02 596.93 248.5C596.85 248.967 596.803 249.32 596.79 249.56C597.31 248.373 597.923 247.447 598.63 246.78C599.35 246.1 600.063 245.76 600.77 245.76C601.263 245.76 601.656 245.933 601.95 246.28C602.243 246.627 602.39 247.067 602.39 247.6C602.39 248.12 602.256 248.547 601.99 248.88C601.723 249.2 601.39 249.36 600.99 249.36C600.603 249.36 600.29 249.32 600.05 249.24C600.09 249.08 600.11 248.933 600.11 248.8C600.11 248.253 599.916 247.98 599.53 247.98C598.943 247.98 598.39 248.573 597.87 249.76C597.363 250.933 597.023 252.033 596.85 253.06C596.916 254.06 597.05 254.96 597.25 255.76ZM609.79 241.24C610.217 241.08 610.657 241 611.11 241C611.563 241 611.937 241.153 612.23 241.46C612.523 241.753 612.67 242.127 612.67 242.58C612.67 243.02 612.603 244.073 612.47 245.74C612.337 247.393 612.27 249.027 612.27 250.64C612.27 252.24 612.43 253.947 612.75 255.76C612.27 255.92 611.77 256 611.25 256C610.37 256 609.93 255.38 609.93 254.14C609.93 253.727 610.017 252.987 610.19 251.92C609.63 253.107 609.13 253.987 608.69 254.56C608.263 255.133 607.843 255.54 607.43 255.78C607.03 256.007 606.603 256.12 606.15 256.12C605.137 256.12 604.357 255.747 603.81 255C603.277 254.253 603.01 253.333 603.01 252.24C603.01 251.147 603.203 250.12 603.59 249.16C603.99 248.187 604.583 247.38 605.37 246.74C606.17 246.087 607.017 245.76 607.91 245.76C608.803 245.76 609.577 245.88 610.23 246.12C610.203 244.4 610.057 242.773 609.79 241.24ZM610.23 247.82C609.577 247.58 608.87 247.46 608.11 247.46C607.35 247.46 606.697 247.68 606.15 248.12C605.697 249.2 605.47 250.407 605.47 251.74C605.47 252.353 605.557 252.94 605.73 253.5C605.903 254.06 606.19 254.34 606.59 254.34C607.203 254.34 607.897 253.653 608.67 252.28C609.457 250.907 609.977 249.42 610.23 247.82Z" fill="black"/>
<defs>
<clipPath id="clip0_11_628">
<rect width="27" height="27" fill="white" transform="translate(80 188)"/>
</clipPath>
<clipPath id="clip1_11_628">
<rect width="27" height="27" fill="white" transform="translate(78 239)"/>
</clipPath>
</defs>
</svg>
